<svg width="450" height="292" viewBox="0 0 450 292" fill="none" xmlns="http://www.w3.org/2000/svg">
<g clip-path="url(#clip0_333_880)">
<path d="M173.981 26.3502H119.385C117.512 26.3502 115.988 24.8658 115.988 23.0414C115.988 21.2169 117.512 19.7325 119.385 19.7325H173.981C175.854 19.7325 177.377 21.2169 177.377 23.0414C177.377 24.8658 175.854 26.3502 173.981 26.3502Z" fill="#E6E7E8"/>
<path d="M216.587 37.5495H119.385C117.512 37.5495 115.988 36.0651 115.988 34.2406C115.988 32.4162 117.512 30.9318 119.385 30.9318H216.587C218.46 30.9318 219.984 32.4162 219.984 34.2406C219.984 36.0651 218.46 37.5495 216.587 37.5495Z" fill="#E6E7E8"/>
<path d="M216.587 48.6479H119.385C117.512 48.6479 115.988 47.1634 115.988 45.339C115.988 43.5146 117.512 42.0302 119.385 42.0302H216.587C218.46 42.0302 219.984 43.5146 219.984 45.339C219.984 47.1634 218.46 48.6479 216.587 48.6479Z" fill="#E6E7E8"/>
<path d="M226.884 106.242V104.657C208.096 104.657 191.69 89.7075 187.328 68.8837L194.407 70.6576C190.983 67.4979 187.524 62.2082 185.378 57.885C184.111 62.5261 181.744 68.3585 178.997 72.0929L185.694 69.0024C190.148 90.6669 207.26 106.242 226.884 106.242Z" fill="#3F3D56"/>
<path d="M219.777 45.5668C219.777 47.3153 218.317 48.7378 216.522 48.7378H174.202C172.408 48.7378 170.947 47.3153 170.947 45.5668C170.947 43.8184 172.408 42.3959 174.202 42.3959H216.522C218.317 42.3959 219.777 43.8184 219.777 45.5668Z" fill="#9DD8F5"/>
<path d="M29.2197 222.204C28.5754 220.019 27.4722 218.155 26.1588 216.825L21.3868 195.635L10.9851 198.118L16.9457 219.345C16.5538 221.141 16.6322 223.286 17.2764 225.471C18.7481 230.463 22.6148 233.778 25.9128 232.876C29.2109 231.974 30.6914 227.196 29.2197 222.204Z" fill="#FFB6B6"/>
<path d="M27.7806 83.2035C27.7806 83.2035 16.5458 82.8258 10.0351 89.9605C2.5759 98.8364 -2.5228 133.615 1.30481 135.957L11.6752 207.688L26.4632 205.709L22.6679 119.642L27.7806 83.2035Z" fill="#9DD8F5"/>
<path d="M103.626 204.115L100.934 291.664H62.277L60.7144 257.917L53.8457 291.664H12.4136L17.5814 233.651L22.9201 221.451L26.5336 213.182L103.626 204.115Z" fill="#2F2E41"/>
<path d="M72.9219 68.9031L46.0655 67.3176L37.1133 78.4161C29.3817 80.0286 22.3984 82.1104 17.5814 85.5507C18.7339 118.787 16.2023 162.004 26.5336 170.374L17.3596 233.447C17.3596 233.447 21.0592 230.36 27.2392 231.45C29.3743 231.826 31.9516 236.511 34.5751 236.795C54.7334 238.976 87.4231 236.733 103.626 204.116L97.3368 156.898L98.9644 87.929C93.8761 84.011 87.5499 81.4648 80.2464 80.0015L72.9219 68.9031Z" fill="#9DD8F5"/>
<path d="M124.625 49.6086C124.916 52.357 124.546 54.9416 123.694 57.0139L128.168 83.0253L115.399 84.7369L112.236 58.1666C110.967 56.3077 110.062 53.8513 109.771 51.1029C109.105 44.8241 111.891 39.3997 115.992 38.9871C120.094 38.5745 123.959 43.3298 124.625 49.6086Z" fill="#FFB6B6"/>
<path d="M82.1729 89.9161C80.836 91.8375 81.2084 93.9974 80.8892 96.5923C79.5341 107.609 101.206 140.161 116.202 143.91C118.169 144.401 119.29 146.469 121.276 146.885C127.16 148.117 132.638 143.568 132.321 137.714L128.247 62.6345L111.135 68.3201L112.23 107.3C112.121 99.2245 104.509 91.0021 98.7426 87.5822C98.7426 87.5822 87.0633 82.8874 82.1729 89.9161Z" fill="#9DD8F5"/>
<path d="M62.2807 65.2661C75.3457 65.2661 85.9369 54.9493 85.9369 42.2228C85.9369 29.4964 75.3457 19.1796 62.2807 19.1796C49.2157 19.1796 38.6245 29.4964 38.6245 42.2228C38.6245 54.9493 49.2157 65.2661 62.2807 65.2661Z" fill="#FFB6B6"/>
<path d="M84.3155 25.3021C84.1121 25.3498 87.4295 22.2 87.5708 22.1312C90.8262 20.5457 87.4813 36.0438 85.1294 35.6078C79.343 34.5376 76.8446 32.413 74.5984 37.7165C73.9717 39.191 73.5811 40.8558 72.3604 41.9101C70.6839 43.345 67.9006 43.2261 66.5334 44.9384C65.4347 46.3178 65.7521 48.3472 66.5659 49.9009C67.3797 51.4627 68.6168 52.7865 69.3573 54.38C70.1874 56.1716 66.6473 61.8714 65.2963 65.0741V65.082L65.2883 65.1008C64.9293 65.9408 64.0763 63.5209 63.1756 63.2793C62.0979 62.9903 60.5103 65.469 58.7938 65.0186C58.7857 65.0186 58.7775 65.0106 58.7694 65.0106C57.1336 64.5667 55.3106 64.0911 53.5039 63.6154H53.4958C48.4093 62.2678 47.1235 64.2021 46.8793 64.1466L43.7217 60.928C42.638 60.1595 42.7605 57.6783 41.9963 57.0119C41.3714 56.4669 39.8135 57.7262 39.3543 57.2024C37.103 54.6339 36.585 52.0644 35.2578 46.9916C34.0452 42.3541 31.5305 28.4731 36.6983 27.8468C41.5731 27.2523 38.0086 20.6408 42.916 20.8866C42.623 19.6816 43.1683 18.3894 44.0554 17.5015C44.9343 16.6057 46.1062 16.0508 47.2862 15.5752C53.1051 13.2604 52.1367 11.2706 58.2729 12.6182C58.8833 11.7859 66.7102 9.61586 67.8171 9.89335C67.8984 9.90918 66.1101 13.2921 70.4804 12.6182C70.3176 13.5933 72.7001 11.4788 72.9219 14.9965C77.583 12.2716 80.0917 18.7937 80.2464 19.7529C80.4498 20.95 78.5943 20.3396 79.8313 20.5219C80.5638 20.6329 81.817 22.0836 81.695 22.805C82.224 22.1074 82.753 21.4177 83.2901 20.7201C83.3877 20.728 83.4772 20.7439 83.5749 20.7597C86.049 21.2195 83.2126 29.0977 83.3145 26.6419C83.5017 22.1312 86.7814 24.771 84.3155 25.3021Z" fill="#2F2E41"/>
<path d="M386.057 20.5779C385.183 27.5757 384.228 34.5639 383.192 41.5407C382.771 44.3744 382.326 47.2441 381.156 49.8705C380.357 51.6632 379.238 53.3003 378.125 54.9265C376.81 56.8482 375.474 58.7943 373.688 60.3134C371.902 61.8324 369.582 62.899 367.218 62.7205C373.49 58.6081 377.705 51.6525 378.371 44.3167C378.684 40.8685 378.255 37.4023 378.172 33.9415C378.09 30.4808 378.387 26.8995 380.026 23.8281C381.666 20.7566 384.904 18.298 388.456 18.3853L386.057 20.5779Z" fill="#2F2E41"/>
<path d="M322.495 169.83C317.392 173.862 311.12 174.566 308.486 171.402C305.852 168.239 307.854 162.406 312.957 158.375C315.19 156.61 317.648 155.483 319.927 155.039L341.77 138.219L349.655 148.372L327.285 163.875C326.368 165.955 324.729 168.065 322.495 169.83Z" fill="#A0616A"/>
<path d="M326.621 146.997L359.168 116.914L362.424 114.536C362.424 114.536 381.107 96.8047 385.945 96.3986C387.994 96.227 390.043 96.7246 391.77 97.817C394.558 99.5785 396.003 102.478 396.003 105.401C396.003 107.843 394.993 110.296 392.926 112.104L363.129 138.161L350.453 149.244L334.688 163.034L333.085 159.854L327.666 149.079L326.621 146.997Z" fill="#9DD8F5"/>
<path d="M396.216 126.638L363.627 136.361C369.083 137.858 371.367 170.242 366.29 171.248C366.29 171.248 420.3 174.99 417.353 171.248C413.76 166.687 418.578 136.374 420.875 136.361L396.216 126.638Z" fill="#A0616A"/>
<path d="M439.579 291.667L436.731 258.181C436.731 246.203 435.933 235.382 434.656 225.734C429.537 187.009 416.703 167.158 416.703 167.158H368.687C368.621 167.23 368.556 167.285 368.491 167.357L368.483 167.364C357.155 178.962 351.262 208.127 348.642 225.734C347.397 234.113 346.892 239.877 346.892 239.877L342.196 280.529L345.59 291.667H373.529L373.089 289.28L391.067 225.734L391.287 224.957L391.482 225.734L408.149 291.667L439.579 291.667Z" fill="#2F2E41"/>
<path d="M369.671 107.321L379.817 87.37L388.366 72.8753L395.28 66.0122H414.2L415.962 72.8753L426.53 78.5945L430.268 107.191L416.95 169.235C401.097 156.653 368.423 153.168 368.423 153.168L363.129 138.161L359.63 120.082L359.207 117.92L369.671 107.321Z" fill="#9DD8F5"/>
<path d="M368.453 143.412C361.885 143.23 356.657 139.783 356.776 135.711C356.894 131.64 362.315 128.487 368.883 128.668C371.758 128.748 374.376 129.453 376.401 130.562L404.222 131.672L403.409 144.378L376.07 141.936C373.983 142.931 371.328 143.491 368.453 143.412Z" fill="#A0616A"/>
<path d="M404.031 100.043L430.274 125.422L384.563 129.981L373.94 144.536L437.654 146.594C443.402 148.588 449.525 144.718 449.999 138.792C450.158 136.791 437.069 86.0177 429.145 81.304C419.858 75.7794 404.031 100.043 404.031 100.043Z" fill="#9DD8F5"/>
<path d="M422.261 41.1098C422.452 29.5822 413.013 20.0865 401.178 19.9006C389.344 19.7148 379.596 28.909 379.405 40.4366C379.214 51.9642 388.653 61.4599 400.487 61.6458C412.322 61.8316 422.07 52.6374 422.261 41.1098Z" fill="#A0616A"/>
<path d="M447.876 105.815C447.339 107.797 443.156 108.82 442.179 111.365C439.07 113.093 440.755 98.974 439.501 98.0465C438.533 97.341 438.273 99.0453 438.053 97.5788C437.223 92.0771 431.795 93.3059 427.774 92.418C427.318 91.5539 426.969 90.7136 426.741 89.8971C426.334 88.4226 424.478 87.9073 423.38 88.9934C422.883 88.5653 422.525 87.0511 422.175 85.537C421.923 84.4351 421.67 83.3332 421.377 82.6356L418.578 76.4839L419.481 81.0659C417.65 80.4238 415.803 81.0897 414.737 78.8859C413.369 76.0558 412.824 72.7421 413.817 69.7693C414.72 67.074 416.242 61.6754 417.959 57.2044C416.014 58.5758 413.679 59.5746 410.969 60.0741C411.929 58.2984 412.906 56.4909 413.312 54.5169C413.711 52.543 413.467 50.3471 412.181 48.7775C411.123 47.4853 409.561 47.8103 408.242 46.7718C407.217 45.9633 406.33 43.8942 405.711 42.7605C408.348 51.2984 410.342 60.3674 406.989 68.5168C404.67 74.1612 399.787 78.7511 393.927 80.836C397.044 78.6639 400.088 76.3491 402.423 73.4001C404.922 70.2371 406.549 66.2416 406.053 62.2779C405.272 56.0549 393.422 36.371 391.966 32.5024C392.763 36.2838 392.454 39.2329 390.354 40.858C389.809 35.3722 383.673 35.8716 380.328 33.6757C380.328 33.6757 377.74 19.4301 383.811 19.3429C386.741 19.3033 389.809 12.5966 392.47 11.3996C396.718 9.48911 399.323 10.7892 404.035 10.9319C408.739 11.0667 413.255 13.0406 416.128 16.6634C417.634 18.5581 418.187 17.0519 420.45 18.233C422.598 19.3508 424.047 18.3123 426.48 18.3837C431.355 18.5105 436.083 21.0473 438.818 24.9714C441.552 28.9034 443.237 28.5387 442.155 34.6191C442.138 34.6904 442.138 34.8331 442.155 35.0471C442.749 44.6235 441.227 54.2236 437.329 63.0389C436.124 65.7501 442.016 68.5484 442.008 71.9334C441.999 75.8654 435.497 79.4487 436.1 81.1293C437.825 89.2233 447.518 87.4237 445.231 100.972C445.044 102.074 448.234 104.491 447.876 105.815Z" fill="#2F2E41"/>
<path d="M388.505 81.0269C388.684 80.9715 388.863 80.908 389.042 80.8367C388.814 80.9952 388.595 81.1459 388.367 81.3044L388.505 81.0269Z" fill="#2F2E41"/>
<path d="M418.692 14.2378C416.36 14.5753 413.992 10.8077 415.316 5.58301C418.2 9.87933 419.675 14.7159 419.907 20.0285L418.352 20.4977L418.692 14.2378Z" fill="#9DD8F5"/>
<path d="M430.602 9.36108C429.011 14.8521 420.933 18.527 419.505 16.6161L419.342 19.8906L418.343 18.639C421.241 14.4419 425.19 11.2222 430.602 9.36108Z" fill="#9DD8F5"/>
<path d="M253.2 157.434C253.2 155.61 254.723 154.125 256.596 154.125H311.192C313.065 154.125 314.589 155.61 314.589 157.434C314.589 159.258 313.065 160.743 311.192 160.743H256.596C254.723 160.743 253.2 159.258 253.2 157.434Z" fill="#E6E7E8"/>
<path d="M253.2 179.631C253.2 177.806 254.723 176.322 256.596 176.322H311.192C313.065 176.322 314.589 177.806 314.589 179.631C314.589 181.455 313.065 182.94 311.192 182.94H256.596C254.723 182.94 253.2 181.455 253.2 179.631Z" fill="#E6E7E8"/>
<path d="M213.99 171.942C212.117 171.942 210.593 170.458 210.593 168.633C210.593 166.809 212.117 165.324 213.99 165.324H311.192C313.065 165.324 314.589 166.809 314.589 168.633C314.589 170.458 313.065 171.942 311.192 171.942H213.99Z" fill="#E6E7E8"/>
<path d="M206.763 140.274L200.066 137.183C202.813 140.918 205.18 146.75 206.447 151.391C208.593 147.068 212.052 141.778 215.476 138.618L208.397 140.392C212.759 119.569 229.165 104.619 247.952 104.619V103.034C228.328 103.034 211.217 118.609 206.763 140.274Z" fill="#3F3D56"/>
<path d="M237.59 172.002H195.271C193.476 172.002 192.016 170.58 192.016 168.831C192.016 167.083 193.476 165.66 195.271 165.66H237.59C239.385 165.66 240.846 167.083 240.846 168.831C240.846 170.58 239.385 172.002 237.59 172.002Z" fill="#9DD8F5"/>
<path d="M249.95 107.152C251.078 100.385 246.36 94.0094 239.414 92.9113C232.467 91.8133 225.922 96.4085 224.795 103.175C223.667 109.942 228.385 116.317 235.331 117.415C242.278 118.513 248.823 113.918 249.95 107.152Z" fill="#3F3D56"/>
<path d="M168.197 15.3116C172.538 15.3116 176.056 11.884 176.056 7.65582C176.056 3.42763 172.538 0 168.197 0C163.856 0 160.338 3.42763 160.338 7.65582C160.338 11.884 163.856 15.3116 168.197 15.3116Z" fill="#E6E7E8"/>
<path d="M260.16 147.7C264.5 147.7 268.019 144.272 268.019 140.044C268.019 135.816 264.5 132.388 260.16 132.388C255.819 132.388 252.3 135.816 252.3 140.044C252.3 144.272 255.819 147.7 260.16 147.7Z" fill="#E6E7E8"/>
</g>
<defs>
<clipPath id="clip0_333_880">
<rect width="450" height="291.667" fill="white"/>
</clipPath>
</defs>
</svg>
