<svg width="359" height="267" viewBox="0 0 359 267" fill="none" xmlns="http://www.w3.org/2000/svg">
<g clip-path="url(#clip0_361_2548)">
<path d="M330.734 64.9039C289.989 8.1329 203.915 -14.8959 119.264 9.90667C74.5121 23.019 31.3627 49.2916 9.97894 100.164C-28.2469 191.103 52.0131 220.147 104.494 229.404C129.871 233.88 153.772 241.398 175.613 251.635C214.907 270.052 284.46 286.371 336.907 209.657C374.921 154.054 357.875 102.719 330.734 64.9039Z" fill="#F2F2F2"/>
<path d="M94.5038 76.1357C94.3898 75.2334 94.1593 74.3498 93.818 73.507C93.7745 73.3476 93.6983 73.199 93.5943 73.0708C93.4903 72.9425 93.3607 72.8373 93.2139 72.7619C93.0176 72.7108 92.8118 72.7085 92.6144 72.7552L89.5366 73.2267C89.279 73.2385 89.0324 73.3345 88.8344 73.4999C88.4335 73.922 88.8283 74.6017 88.816 75.1841C88.8022 75.8389 88.2211 76.3704 87.591 76.5463C86.9477 76.6764 86.2842 76.6682 85.6444 76.5221L81.3408 75.8525C82.6083 75.4473 83.7364 74.6935 84.5965 73.6771C85.1629 73.0054 85.4642 71.7512 84.6457 71.4331C84.4025 71.3663 84.1489 71.3459 83.8982 71.373C81.9483 71.3882 80.414 69.7581 78.5886 69.0716C77.4203 68.6606 76.1521 68.63 74.9654 68.9842C73.7787 69.3384 72.7343 70.0593 71.9814 71.0437L74.274 71.1544C74.4897 71.1425 74.7036 71.1996 74.8847 71.3175C75.3871 71.7308 74.7625 72.5247 74.8333 73.1719C74.9252 74.0128 76.0403 74.1923 76.8809 74.2774C77.7215 74.3624 78.7878 75.0462 78.3835 75.7889C74.1587 77.246 69.8595 72.9407 65.4225 73.4707C64.2996 73.6048 63.2392 74.0465 62.1428 74.3243C55.4453 76.021 48.5213 71.494 41.6794 72.4527C40.1584 72.7124 38.6635 73.1071 37.2124 73.6323C36.2812 73.9385 35.3099 74.2693 34.6333 74.9793C33.9567 75.6893 33.6992 76.9035 34.3402 77.6459C32.5735 77.7915 30.795 77.6223 29.0874 77.1459C29.5492 77.4029 29.9333 77.7797 30.1995 78.2366C30.4658 78.6935 30.6042 79.2138 30.6004 79.7428C27.8419 80.1931 25.1565 81.013 22.6164 82.1803C23.0904 82.9696 23.6442 83.7082 24.2689 84.3844L20.7767 86.6307C21.9565 86.9283 22.5665 88.5391 21.8804 89.5452C23.1037 89.0003 23.8619 87.5906 25.1701 87.3048C26.0271 87.1176 26.8991 87.4686 27.7121 87.7984C28.5251 88.1281 29.4187 88.4479 30.2603 88.2004C31.102 87.9529 31.7227 86.8602 31.1879 86.1641C34.7853 85.1131 38.5031 84.5316 42.2492 84.4337C42.5382 84.3974 42.8313 84.4531 43.0869 84.5929C43.5745 84.9317 43.4462 85.6633 43.42 86.257C43.3937 86.8507 43.8558 87.6309 44.3858 87.3633C43.7623 87.9047 44.2953 88.9237 44.8934 89.493C45.4916 90.0622 46.2125 90.8476 45.8463 91.5881C45.7508 91.7814 45.5887 91.936 45.4967 92.131C45.2252 92.7066 45.6562 93.3777 46.1646 93.7599C46.6729 94.1422 47.2956 94.4093 47.6488 94.9387C48.0019 95.468 47.8415 96.3945 47.2101 96.4684L45.4153 94.1867C44.8021 94.8234 44.3817 95.621 44.2029 96.4872C46.1061 98.045 46.3924 101.216 44.799 103.09C43.9847 104.048 42.8268 104.63 41.8162 105.377C40.8056 106.124 39.8704 107.188 39.873 108.446C39.8774 110.619 39.7 112.638 40.5133 114.652C42.013 118.367 43.7444 121.984 45.6973 125.482C46.2102 126.4 46.873 127.407 47.9119 127.565C46.5989 124.364 45.417 121.114 44.366 117.814C45.0505 117.817 45.8415 117.871 46.2428 118.426C46.5751 118.886 46.5037 119.511 46.6069 120.069C46.7382 120.61 46.9572 121.125 47.2551 121.595L53.5251 132.778C54.0449 133.705 54.6411 134.7 55.6344 135.075C56.2696 135.315 57.0044 135.27 57.589 135.616C58.0472 135.886 58.3558 136.367 58.8229 136.622C60.1437 137.344 61.9804 135.96 63.2147 136.822C63.5676 137.068 63.7922 137.459 64.1174 137.741C65.2574 138.73 67.1274 138.068 68.4435 138.806C69.2916 139.281 69.7312 140.231 70.1835 141.093C71.3167 143.25 73.1503 145.364 75.5788 145.536C76.3416 145.59 77.1208 145.445 77.8665 145.615C78.6121 145.785 79.3462 146.436 79.2265 147.192C79.0213 148.489 79.6611 149.909 79.4892 151.21C79.1763 153.581 75.8181 154.622 75.5296 156.996C75.4665 157.516 75.5653 158.052 75.4417 158.561C75.2902 159.184 74.8226 159.692 74.6564 160.312C74.3415 161.486 75.1818 162.655 76.105 163.445C77.0282 164.235 78.1293 164.916 78.634 166.022C79.1675 167.191 78.9055 168.554 79.079 169.828C79.4577 172.608 81.856 174.669 84.3241 175.998C85.0761 176.403 85.8836 176.795 86.3703 177.497C87.0056 178.414 86.9423 179.623 87.1544 180.718C87.6739 183.401 89.9295 185.611 89.9935 188.343C90.0391 190.285 88.961 192.047 88.3171 193.879C87.7133 195.634 87.4948 197.499 87.6765 199.347C87.8582 201.195 88.4358 202.981 89.3699 204.585C89.8516 205.4 90.4278 206.168 90.7686 207.051C91.3767 208.626 91.1794 210.417 91.7401 212.01C92.4814 214.117 94.5184 215.856 94.3234 218.081C95.2482 220.004 97.2902 220.949 99.3436 221.521L103.024 222.547C103.728 222.743 104.465 222.941 105.182 222.799C105.9 222.657 106.585 222.06 106.566 221.328C104.761 220.921 102.899 220.487 101.411 219.386C99.9235 218.285 98.9044 216.324 99.4688 214.56C99.7306 213.742 100.287 212.798 99.758 212.122C99.4549 211.735 98.9006 211.634 98.5588 211.281C98.0255 210.73 98.2087 209.805 98.5921 209.141C98.9754 208.476 99.5296 207.883 99.6842 207.132C99.7623 206.711 99.7101 206.277 99.5347 205.888C99.3593 205.498 99.0691 205.171 98.703 204.951C99.3854 204.693 100.006 204.294 100.525 203.781C101.004 203.233 101.225 202.389 100.848 201.766C101.967 201.908 103.288 201.978 104.023 201.121C104.609 200.436 104.569 199.413 104.337 198.541C104.105 197.67 103.714 196.823 103.701 195.922C106.283 196.044 108.87 195.956 111.437 195.659C111.066 194.407 110.222 193.349 109.085 192.71C110.248 192.513 111.307 191.119 111.674 189.997C112.042 188.875 111.948 187.653 111.721 186.495C111.634 186.196 111.622 185.881 111.686 185.577C111.817 185.159 112.227 184.904 112.606 184.686L118.377 181.368C118.722 181.195 119.034 180.964 119.3 180.686C119.905 179.975 119.815 178.901 119.506 178.02C119.196 177.139 118.7 176.311 118.581 175.384C118.224 172.614 121.186 170.627 122.185 168.019C122.578 166.996 122.658 165.883 122.733 164.79C122.815 163.616 122.821 162.251 121.92 161.495C121.057 160.769 119.708 160.931 118.805 160.256C117.977 159.637 117.691 158.436 116.786 157.936C115.964 157.482 114.934 157.771 114.02 157.558C112.411 157.182 111.399 155.325 109.755 155.153C108.828 155.056 107.779 155.51 107.019 154.969C106.349 154.493 106.322 153.535 106.195 152.723C105.972 151.46 105.367 150.296 104.463 149.388C103.559 148.48 102.398 147.871 101.138 147.643C100.182 147.489 99.1411 147.548 98.3279 147.022C97.5044 146.489 97.1268 145.492 96.4799 144.754C95.4374 143.565 93.7954 143.143 92.2572 142.781L86.0007 141.308C84.89 141.047 83.4584 140.908 82.8624 141.882C82.686 142.253 82.5611 142.646 82.4912 143.051C82.2679 143.784 81.8184 144.426 81.2075 144.887C80.5965 145.347 79.8554 145.602 79.0909 145.614C78.5665 144.718 77.717 144.06 76.7197 143.777C76.0852 143.6 75.4062 143.58 74.8011 143.32C74.4716 143.159 74.1783 142.932 73.9393 142.653C73.7003 142.375 73.5206 142.051 73.4111 141.7C73.3017 141.35 73.2648 140.981 73.3027 140.616C73.3406 140.25 73.4526 139.897 73.6317 139.576C73.9924 138.933 74.1317 138.189 74.0281 137.459C73.9245 136.729 73.5838 136.053 73.0585 135.536C71.9945 134.58 70.4554 134.349 69.0287 134.444C68.6551 133.628 69.2798 132.707 69.9531 132.114C70.6263 131.521 71.4439 130.937 71.5905 130.051C71.8211 128.658 70.0453 127.599 68.6969 128.015C67.3486 128.43 66.488 129.742 65.9192 131.034C65.5928 131.776 65.3153 132.557 64.8004 133.182C64.2856 133.808 63.4564 134.255 62.6722 134.055C61.562 133.771 61.1332 132.45 60.8875 131.329C60.5578 129.826 60.2262 128.301 60.2953 126.763C60.3644 125.225 60.8821 123.646 62.0147 122.605C63.8603 120.909 66.6915 121.075 69.1823 121.346C68.5938 120.682 68.7392 119.563 69.3688 118.938C69.7012 118.643 70.1006 118.433 70.5324 118.326C70.9641 118.22 71.4153 118.221 71.8466 118.329C72.5972 118.485 73.2733 118.89 73.7662 119.478C74.474 120.342 74.6753 121.509 75.2103 122.489C75.7453 123.47 76.9482 124.307 77.9329 123.781C78.7833 123.326 78.9183 122.145 78.7067 121.204C78.495 120.262 78.0454 119.346 78.1221 118.384C78.2684 116.548 80.1692 115.443 81.8465 114.687C83.5238 113.931 85.4444 112.914 85.7101 111.091C85.7192 110.735 85.7864 110.382 85.9091 110.047C86.0951 109.751 86.3537 109.507 86.6601 109.339C91.5554 106.1 96.532 102.822 102.127 101.052C102.418 100.96 102.452 101.062 102.749 100.99C103.164 100.749 102.889 100.085 102.491 99.8171C102.093 99.5493 101.561 99.344 101.46 98.8746C101.386 98.5296 101.589 98.1908 101.641 97.8418C101.771 96.9843 100.746 96.1925 99.9508 96.5354C99.5014 95.9394 100.391 95.2469 101.11 95.0487C103.269 94.4537 105.486 94.0911 107.722 93.9672C107.98 93.9261 108.244 93.9712 108.474 94.0954C108.85 94.3558 108.802 94.9533 108.535 95.3251C108.269 95.6969 107.855 95.9304 107.524 96.245C107.161 96.5985 106.903 97.0448 106.776 97.5353C106.65 98.0258 106.661 98.5417 106.807 99.0266C107.975 99.6211 109.244 100.233 110.537 100.024C111.829 99.8142 112.977 98.3597 112.369 97.1981C111.803 96.1163 110.103 95.8723 109.811 94.6867C109.469 93.2986 111.431 92.064 110.989 90.7044C110.796 90.1089 110.203 89.7584 109.748 89.3285C109.211 88.8013 108.846 88.1238 108.7 87.3849C108.554 86.6461 108.635 85.8804 108.932 85.1885C108.191 85.319 107.43 85.2697 106.712 85.0447C105.994 84.8198 105.341 84.4257 104.806 83.8957C103.819 82.8984 103.032 81.3253 101.631 81.37C100.344 81.4109 99.2368 82.9131 98.0343 82.4548C97.7385 82.3421 97.4266 82.1126 97.1399 82.2471C97.046 82.3081 96.9671 82.3898 96.9094 82.4858C96.8516 82.5819 96.8163 82.6898 96.8063 82.8015C96.5007 84.2644 97.0264 85.9311 96.2301 87.1952C95.3636 88.5708 93.3594 88.7615 92.3089 90.0019C91.7387 90.6752 91.5177 91.5826 90.9936 92.2924C90.4695 93.0023 89.357 93.4537 88.728 92.835C89.0371 92.1987 89.1215 91.4762 88.9674 90.7856C88.8133 90.095 88.4298 89.4772 87.8796 89.0331C87.2956 88.6516 86.6661 88.345 86.0059 88.1205C85.2681 87.8078 84.5662 87.4162 83.9125 86.9524C83.5851 86.7546 83.319 86.4695 83.1441 86.1291C83.0057 85.7027 83.0243 85.2409 83.1966 84.8271C83.5156 83.9115 84.0783 83.1005 84.8239 82.4817C85.5696 81.8629 86.4699 81.4597 87.4277 81.3158C88.2652 81.2017 89.2399 81.2419 89.7942 80.603C90.0874 80.2649 90.2413 79.7538 90.667 79.6165C90.9393 79.5617 91.222 79.5966 91.4728 79.7159L94.5988 80.8175C94.9476 80.9752 95.3315 81.0388 95.7124 81.002C95.9013 80.9765 96.0735 80.8804 96.1946 80.7331C96.3157 80.5857 96.3767 80.398 96.3653 80.2075C96.2654 79.6877 95.4666 79.4383 95.5393 78.914C95.58 78.7441 95.6712 78.5906 95.8009 78.4737C96.929 77.2714 98.3087 76.3338 99.8411 75.7279C101.373 75.122 103.021 74.8628 104.665 74.9689C105.059 75.6178 104.435 76.3861 103.916 76.94C103.397 77.4938 102.98 78.4835 103.608 78.9098C103.865 79.0413 104.151 79.1059 104.44 79.0975C105.21 79.2018 105.958 79.429 106.655 79.7703C107.736 80.241 108.795 80.756 109.834 81.3153C109.742 80.6296 109.654 79.9071 109.914 79.2659C110.174 78.6247 110.911 78.1218 111.556 78.3715C112.177 78.6121 112.496 79.4355 113.157 79.511C114.04 79.6116 114.388 78.306 114.019 77.4968C113.651 76.6875 112.921 76.0099 112.86 75.1226C112.819 74.5239 113.046 73.7814 112.569 73.4189C112.399 73.3101 112.206 73.2424 112.005 73.2211L100.08 71.0239C99.372 70.8934 98.3489 70.9934 98.3175 71.7137C98.3 72.1157 98.6586 72.5135 98.4998 72.8831C98.3302 73.2776 97.7732 73.2416 97.3676 73.3811C96.7381 73.5976 96.4222 74.346 96.4827 75.0097C96.5934 75.6691 96.8484 76.2959 97.2296 76.8449C96.4539 76.5201 95.2795 76.4604 94.5038 76.1357Z" fill="#2F2E41"/>
<path d="M84.9888 66C84.2368 65.7508 83.4265 65.7392 82.6677 65.9667C81.9089 66.1943 81.2383 66.6499 80.7469 67.2719C80.5506 67.5308 80.3857 67.8876 80.5501 68.1679C80.7857 68.5698 81.3862 68.4111 81.829 68.2673C82.4797 68.0345 83.188 68.0176 83.849 68.2191C84.2648 68.362 84.6367 68.6146 85.0542 68.7521C85.2575 68.8372 85.48 68.8653 85.698 68.8334C85.916 68.8015 86.1212 68.7108 86.2917 68.571C86.5782 68.2784 86.5962 67.8235 86.5967 67.4136C86.6166 67.2765 86.6056 67.1367 86.5647 67.0043C86.5237 66.8719 86.4537 66.7504 86.3598 66.6486C86.1927 66.5517 86.0049 66.4961 85.812 66.4864C85.38 66.4063 84.9894 66.1778 84.7076 65.8403" fill="#2F2E41"/>
<path d="M89.2887 64.8013C89.1204 64.7921 88.9526 64.8264 88.8014 64.9009C88.6502 64.9755 88.5207 65.0877 88.4253 65.2268C88.33 65.366 88.272 65.5273 88.2569 65.6954C88.2418 65.8635 88.2702 66.0326 88.3393 66.1865C88.8561 66.3276 89.396 66.3629 89.9268 66.2902C90.1915 66.249 90.4381 66.1303 90.6356 65.949C90.8331 65.7678 90.9725 65.532 91.0364 65.2715C90.4115 65.3854 89.7667 65.2621 89.2277 64.9257" fill="#2F2E41"/>
<path d="M103.715 62.7995C102.309 63.099 100.942 63.5637 99.6447 64.1841C100.256 64.4196 100.777 64.8456 101.128 65.3994C101.48 65.9532 101.645 66.6054 101.598 67.26C101.543 67.5114 101.55 67.7722 101.617 68.0205C101.766 68.3835 102.199 68.5196 102.58 68.6128C103.265 68.8213 103.979 68.9126 104.694 68.8829C105.051 68.8642 105.399 68.7565 105.704 68.5696C106.009 68.3827 106.264 68.1224 106.443 67.8125C106.547 67.5183 106.668 67.2307 106.807 66.9514C107.72 65.5592 110.432 67.2426 111.412 65.897C111.758 65.423 111.726 64.7095 112.176 64.3339C112.409 64.1703 112.679 64.0672 112.961 64.0339C114.933 63.6418 116.924 63.3578 118.926 63.1833C119.875 63.1007 121.111 62.7596 121.119 61.8062C117.546 61.1035 113.841 61.6026 110.58 63.2258C109.405 63.8149 107.851 65.0543 106.72 64.2732C106.296 63.9807 106.317 63.1932 105.734 62.8644C105.138 62.5281 104.348 62.6649 103.715 62.7995Z" fill="#2F2E41"/>
<path d="M115.401 64.9872L117.078 65.3099C116.77 65.2963 116.462 65.3486 116.175 65.4636C115.888 65.5786 115.629 65.7535 115.415 65.9767C115.2 66.1999 115.036 66.4663 114.933 66.758C114.83 67.0497 114.79 67.3601 114.817 67.6684C116.387 68.1938 118.1 67.6826 119.754 67.7524C121.409 67.8222 123.334 69.0057 123.052 70.6395C122.966 71.1336 122.681 71.6273 122.83 72.1062C122.933 72.4419 123.229 72.68 123.396 72.9892C123.744 73.6334 123.466 74.4482 123.027 75.0338C122.588 75.6194 121.997 76.0867 121.612 76.709C120.653 78.2568 121.198 80.2579 121.769 81.9871C121.934 82.6404 122.239 83.2501 122.663 83.7739C123.509 84.6746 124.887 84.7529 126.122 84.7709C127.021 84.7841 128.05 84.7396 128.619 84.0424C129.361 83.1322 128.842 81.7121 129.33 80.6439C129.774 79.6737 130.904 79.2575 131.928 78.9623C133.805 78.4214 135.717 77.9617 137.49 77.1448C139.693 76.1304 141.751 74.5497 144.172 74.4191C144.851 74.3825 145.547 74.4627 146.202 74.2764C146.856 74.0901 147.477 73.5238 147.428 72.8446C147.385 72.2643 146.895 71.8381 146.512 71.4006C146.129 70.9632 145.828 70.2905 146.18 69.8276L152.525 68.6409C152.075 67.4136 151.725 65.7972 152.759 64.9983C153.131 64.71 153.631 64.5948 153.948 64.2464C154.489 63.6524 154.217 62.6294 153.593 62.1243C152.968 61.6192 152.123 61.5019 151.323 61.4354C148.541 61.204 145.743 61.3569 142.955 61.5099C137.506 61.8089 132.056 62.108 126.607 62.4071C125.51 62.4673 124.243 62.3753 123.237 62.75C122.386 63.0673 121.78 63.6496 120.806 63.8542C119.007 64.2319 117.028 63.9763 115.401 64.9872Z" fill="#2F2E41"/>
<path d="M145.45 78.2625C145.279 78.2354 145.105 78.2751 144.962 78.3734C144.868 78.4773 144.812 78.6102 144.803 78.7503C144.695 79.3686 144.824 80.005 145.164 80.5321C145.338 80.7907 145.577 80.998 145.857 81.1327C146.138 81.2673 146.449 81.3244 146.759 81.2978C147.515 81.2014 148.071 80.5562 148.766 80.2414C149.836 79.7566 154.381 79.0009 151.237 77.3003C150.153 76.7142 149.453 77.2316 148.599 77.6176C147.628 78.1152 146.539 78.3382 145.45 78.2625Z" fill="#2F2E41"/>
<path d="M172.987 64.0273C172.62 64.1775 172.313 64.4451 172.113 64.7885C172.022 64.9628 172 65.1658 172.054 65.3555C172.107 65.5451 172.232 65.7069 172.401 65.8073C172.538 65.8571 172.684 65.8802 172.829 65.8753L174.322 65.92C174.956 65.939 175.748 66.0742 175.919 66.686C176.045 67.1404 175.762 67.7242 176.104 68.0488C176.25 68.1625 176.427 68.2314 176.611 68.2471C177.103 68.3736 177.617 68.3902 178.115 68.2957C179.201 68.004 178.631 67.3403 178.973 66.7494C179.496 65.8451 179.406 66.3925 180.328 65.8743C181.009 65.4916 181.889 64.7973 181.32 63.8218C180.332 62.1256 174.445 63.2986 172.987 64.0273Z" fill="#2F2E41"/>
<path d="M202.448 63.1743L201.582 63.2902C199.627 63.5513 197.661 63.8149 195.779 64.4025C196.594 64.7251 197.449 64.9352 198.32 65.0269C198.8 65.0504 199.276 65.1183 199.744 65.2295C200.575 65.4773 201.413 66.1173 202.216 65.7895C202.714 65.5862 202.877 65.067 203.289 64.7918C203.574 64.6018 204.655 64.2942 204.776 64.1024C205.752 62.5519 203.199 63.074 202.448 63.1743Z" fill="#2F2E41"/>
<path d="M206.254 67.1189C205.097 67.7671 204.022 68.5547 203.056 69.4643C202.649 69.8476 202.233 70.3243 202.269 70.8827C202.319 71.6249 203.108 72.0554 203.792 72.3454L206.563 73.52C206.899 73.0456 206.592 72.3908 206.244 71.9246C205.897 71.4584 205.484 70.9191 205.637 70.3581C205.813 69.718 206.592 69.4998 207.246 69.3895C208.311 69.2099 211.184 69.2243 210.839 67.5056C210.432 65.4805 207.323 66.5205 206.254 67.1189Z" fill="#2F2E41"/>
<path d="M205.697 181.72C205.433 182.485 205.408 183.386 205.865 184.053C206.377 184.802 207.401 185.081 208.288 184.892C209.171 184.656 209.957 184.15 210.538 183.443C211.068 182.851 211.505 182.181 211.832 181.456C212.288 180.327 212.61 179.147 212.791 177.942L213.651 173.42C213.843 172.409 213.836 169.31 211.98 170.32C211.474 170.595 210.3 172.773 209.769 173.391C208.811 174.504 208.685 175.584 208.181 176.932C207.549 178.621 206.281 180.029 205.697 181.72Z" fill="#2F2E41"/>
<path d="M303.695 204.864C303.087 204.627 302.498 204.346 301.931 204.023C301.363 205.588 301.061 207.236 301.038 208.901L305.192 206.547C305.817 206.193 306.525 205.701 306.512 204.982C306.518 204.893 306.499 204.805 306.459 204.725C306.418 204.646 306.357 204.579 306.282 204.532C306.19 204.495 306.089 204.483 305.991 204.498C305.375 204.549 304.813 204.852 304.232 205.064C303.651 205.275 302.972 205.386 302.438 205.073" fill="#2F2E41"/>
<path d="M325.61 206.261C325.154 206.386 324.709 206.546 324.278 206.74C323.324 207.226 322.676 208.148 321.818 208.788C320.997 209.4 320.009 209.736 319.038 210.063C318.753 210.316 318.884 210.824 319.194 211.046C319.527 211.236 319.909 211.322 320.291 211.293C321.299 211.315 322.361 211.325 323.244 210.838C323.741 210.515 324.207 210.145 324.634 209.733C325.666 208.871 326.906 208.302 328.133 207.752C328.579 207.583 328.992 207.336 329.352 207.022C330.123 206.261 330.178 205.088 329.066 204.829C328.167 204.62 326.465 205.984 325.61 206.261Z" fill="#2F2E41"/>
<path d="M335.293 199.928C335.343 199.405 335.273 198.877 335.09 198.384C334.906 197.892 334.613 197.447 334.233 197.085C334.221 198.132 334.19 199.248 333.601 200.114C333.182 200.731 332.525 201.147 332.066 201.735C331.607 202.323 331.403 203.254 331.942 203.77C332.286 204.032 332.705 204.177 333.138 204.182C334.21 204.309 335.451 204.379 336.203 203.604C336.613 203.18 336.813 202.553 337.313 202.242C337.5 202.164 337.666 202.045 337.801 201.893C338.007 201.564 337.679 201.131 337.309 201.012C336.94 200.893 336.532 200.949 336.161 200.837C335.789 200.724 335.448 200.306 335.639 199.967" fill="#2F2E41"/>
<path d="M318.083 161.536C317.521 161.673 316.938 161.707 316.364 161.637C315.409 161.462 314.666 160.742 313.896 160.151C312.064 158.754 309.837 157.975 307.535 157.926C305.441 157.886 303.328 158.454 301.272 158.058C301.406 158.806 302.045 159.367 302.728 159.701C303.41 160.035 304.163 160.202 304.849 160.529C305.947 161.058 306.817 161.965 307.302 163.084C307.522 163.6 307.661 164.162 307.996 164.613C308.679 165.534 309.975 165.736 311.119 165.66C312.61 165.562 314.167 165.133 315.554 165.689C316.615 166.115 317.375 167.045 318.261 167.768C319.147 168.491 320.395 169.027 321.412 168.506C320.355 168.163 319.436 167.491 318.787 166.588C318.139 165.685 317.795 164.598 317.808 163.486C318.805 163.578 321.68 163.543 321.525 161.845C321.394 160.406 318.94 161.381 318.083 161.536Z" fill="#2F2E41"/>
<path d="M305.029 173.242C305.206 172.269 306.176 171.41 305.874 170.468C305.665 169.817 304.911 169.495 304.228 169.479C303.545 169.463 302.874 169.667 302.191 169.686C301.747 169.662 301.301 169.669 300.858 169.705C299.502 169.928 298.667 171.35 297.389 171.856C296.613 172.164 295.74 172.105 294.932 172.318C293.099 172.8 291.938 174.535 290.656 175.934C288.585 178.184 285.887 179.76 282.911 180.456C281.869 180.698 280.748 180.853 279.919 181.531C278.822 182.429 278.552 183.968 278.308 185.366C277.633 189.226 276.602 193.015 275.228 196.685L279.582 197.241C280.41 197.347 281.268 197.451 282.065 197.205C282.645 196.986 283.194 196.693 283.699 196.334C285.638 195.129 287.808 194.344 290.069 194.032C291.21 193.875 292.405 193.846 293.475 194.27C294.545 194.695 295.463 195.657 295.553 196.806C296.015 196.662 296.509 196.646 296.979 196.761C297.45 196.876 297.881 197.116 298.226 197.457C298.908 198.153 299.354 199.045 299.503 200.008C299.617 200.605 299.732 201.319 300.285 201.57C300.736 201.774 301.253 201.554 301.746 201.514C303.42 201.38 304.809 203.335 306.455 202.998C308.219 202.637 308.653 199.991 310.374 199.461C311.363 199.156 312.75 199.527 313.223 198.606C313.641 197.794 312.808 196.857 312.894 195.949C313 194.83 314.318 194.355 315.334 193.877C318.838 192.231 320.501 187.509 318.803 184.026C317.797 181.963 315.818 180.339 315.452 178.072C315.171 176.328 315.857 174.294 314.747 172.921C314.182 172.223 313.225 171.838 312.889 171.004C312.678 170.48 312.763 169.885 312.649 169.331C312.535 168.776 312.052 168.197 311.506 168.341C309.919 168.757 309.413 173.664 308.564 174.856C307.273 176.668 304.623 175.474 305.029 173.242Z" fill="#2F2E41"/>
<path d="M275.71 163.389C275.167 163.237 274.576 163.087 274.056 163.305C273.537 163.522 273.233 164.286 273.65 164.665C276.911 164.538 280.193 164.411 283.426 164.855C287.152 165.366 290.839 166.631 294.581 166.259C292.443 165.627 290.27 165.123 288.074 164.747L284.41 164.046C283.428 163.84 282.435 163.687 281.436 163.586C279.346 163.413 277.764 163.966 275.71 163.389Z" fill="#2F2E41"/>
<path d="M278.974 152.017C278.704 151.994 278.368 151.975 278.228 152.208C278.094 152.43 278.248 152.725 278.176 152.974C278.077 153.316 277.631 153.403 277.28 153.356C276.928 153.31 276.548 153.199 276.236 153.368C276.078 153.476 275.96 153.633 275.898 153.814C275.836 153.995 275.835 154.192 275.894 154.374C276.022 154.736 276.228 155.064 276.497 155.336C276.958 155.918 277.483 156.445 278.062 156.908C279.183 157.736 280.701 158.135 281.407 159.338C281.507 159.571 281.66 159.777 281.854 159.94C282.193 160.155 282.635 159.991 283 159.824L284.279 159.239C284.509 159.156 284.715 159.016 284.877 158.832C285.169 158.435 284.99 157.871 284.744 157.443C284.499 157.015 284.185 156.573 284.238 156.082C284.332 155.208 285.454 154.874 285.916 154.126C286.381 153.372 286.078 152.4 286.132 151.516C286.195 150.481 286.844 149.135 285.799 148.362C284.911 147.705 284.063 148.312 283.425 149.037C282.081 150.567 281.445 152.223 278.974 152.017Z" fill="#2F2E41"/>
<path d="M286.738 136.558C287.175 137.395 288.085 137.895 288.561 138.71C289.077 139.593 289.019 140.735 289.579 141.592C290.153 142.471 291.309 142.937 291.631 143.937C291.983 145.028 291.185 146.354 291.821 147.308C291.94 147.463 292.089 147.593 292.261 147.688C292.432 147.783 292.621 147.841 292.816 147.859C293.011 147.877 293.207 147.854 293.393 147.792C293.578 147.73 293.749 147.63 293.894 147.498C294.162 147.206 294.306 146.82 294.294 146.423C294.283 146.027 294.116 145.65 293.831 145.374C293.455 145.03 292.914 144.882 292.6 144.48C292.436 144.248 292.327 143.982 292.28 143.702C292.109 142.894 292.136 142.056 292.36 141.261C292.445 141.06 292.466 140.837 292.422 140.623C292.28 140.211 291.723 140.182 291.332 139.991C290.444 139.556 290.465 138.301 290.62 137.324C290.517 137.975 288.202 136.868 287.96 136.499C287.478 135.767 287.74 134.355 287.645 133.545C286.605 134.047 286.204 135.534 286.738 136.558Z" fill="#2F2E41"/>
<path d="M263.416 149.438C262.989 148.959 262.345 148.458 261.772 148.747C261.335 148.968 261.215 149.573 261.387 150.032C261.595 150.478 261.916 150.861 262.319 151.145C263.512 152.13 264.798 153.02 265.839 154.166C267.703 156.217 268.69 158.984 270.717 160.873C271.125 161.311 271.664 161.603 272.253 161.705C272.844 161.76 273.507 161.382 273.575 160.792C273.631 160.306 273.292 159.871 272.962 159.511C272.174 158.653 271.312 157.864 270.569 156.968C270.226 156.624 270.01 156.173 269.957 155.689C269.954 155.207 270.393 154.702 270.86 154.821C270.292 154.676 269.871 153.729 269.038 153.551C268.341 153.402 268.173 153.834 267.344 153.478C265.763 152.799 264.523 150.679 263.416 149.438Z" fill="#2F2E41"/>
<path d="M300.558 102.805C300.105 102.67 299.659 102.51 299.223 102.327C298.049 101.974 296.496 102.838 296.653 104.055C296.757 104.864 297.508 105.409 297.923 106.11C298.539 107.15 298.375 108.469 298.051 109.634C297.972 109.995 297.821 110.336 297.607 110.637C297.309 110.954 296.952 111.212 296.556 111.394C294.971 112.284 293.573 113.473 292.44 114.895C292.316 115.027 292.231 115.189 292.191 115.364C292.135 115.775 292.548 116.074 292.781 116.417C293.299 117.178 292.924 118.203 292.976 119.122C292.968 119.252 292.993 119.382 293.05 119.5C293.106 119.617 293.191 119.718 293.297 119.793C293.61 119.952 293.98 119.682 294.149 119.376C294.71 118.357 294.287 116.722 295.341 116.23C295.54 116.137 295.782 116.098 295.915 115.923C296.126 115.645 295.922 115.233 296.029 114.901C296.19 114.402 296.871 114.379 297.394 114.401C298.296 114.439 299.196 114.319 300.056 114.047C300.394 113.966 300.7 113.789 300.937 113.536C301.252 113.142 301.225 112.583 301.162 112.082C300.846 109.588 300.057 107.177 298.837 104.98C299.762 105.098 300.769 105.2 301.568 104.718C302.015 104.447 302.551 103.638 302.329 103.088C301.979 102.218 301.345 102.95 300.558 102.805Z" fill="#2F2E41"/>
<path d="M181.915 116.524C182.026 117.118 182.134 117.745 181.94 118.317C181.745 118.89 181.133 119.369 180.555 119.193C180.106 119.057 179.847 118.605 179.528 118.261C177.756 116.345 173.757 117.454 172.663 115.084C172.216 114.117 172.52 112.958 172.215 111.937C172.023 111.347 171.64 110.838 171.127 110.489C170.614 110.14 170 109.972 169.382 110.01C168.817 110.092 168.268 110.256 167.751 110.498C164.29 111.886 160.656 112.796 156.95 113.203C156.246 113.246 155.549 113.372 154.875 113.581C153.353 114.133 152.313 115.546 151.573 116.987C150.833 118.429 150.287 119.989 149.294 121.27C148.252 122.616 146.791 123.559 145.428 124.578C144.903 124.917 144.465 125.376 144.152 125.917C143.857 126.524 143.873 127.231 143.896 127.906L144.175 136.107C144.211 137.161 144.256 138.254 144.727 139.198C145.316 140.377 146.479 141.149 147.286 142.19C148.109 143.26 148.538 144.582 148.5 145.933C148.483 146.475 148.429 147.118 148.851 147.458C149.108 147.625 149.409 147.712 149.715 147.707L160.794 148.615C162.743 148.775 164.903 149.037 166.175 150.524C166.776 151.226 167.258 152.235 168.178 152.31C168.573 152.342 168.957 152.18 169.351 152.149C170.347 152.07 171.221 152.827 171.773 153.66C172.609 154.93 172.988 156.447 172.849 157.961C172.758 158.912 172.464 159.836 172.4 160.789C172.159 164.415 175.229 167.565 175.288 171.198C175.323 173.335 174.31 175.332 173.322 177.226C174.916 179.645 173.611 182.865 174.246 185.692C174.848 188.374 177.081 190.474 177.638 193.166C177.893 194.398 177.907 195.915 178.993 196.55C179.469 196.782 179.997 196.888 180.526 196.857C183.716 196.895 186.87 196.176 189.73 194.759C191.072 194.092 192.463 193.097 192.697 191.615C192.886 190.42 192.281 189.084 192.897 188.043C193.623 186.816 195.482 186.914 196.55 185.97C198.283 184.44 196.932 181.522 197.634 179.319C198.265 177.338 200.437 176.286 201.514 174.508C201.937 173.743 202.241 172.918 202.415 172.061C202.909 170.013 203.216 167.924 203.333 165.821C203.361 164.543 203.455 163.267 203.615 161.998C204.775 154.777 211.906 149.942 214.22 143.004C214.442 142.342 214.545 141.459 213.957 141.084C213.608 140.918 213.212 140.876 212.836 140.967L207.728 141.612C207.094 141.692 206.422 141.767 205.839 141.503C205.256 141.239 204.839 140.501 205.148 139.941C206.015 138.367 204.231 136.379 203.438 134.767C201.303 130.426 198.761 126.298 195.846 122.438C195.659 122.24 195.542 121.986 195.513 121.714L196.962 121.763C196.473 120.005 195.665 118.081 193.96 117.438C192.999 117.076 191.934 117.201 190.909 117.257C187.971 117.418 184.822 116.974 181.915 116.524Z" fill="#2F2E41"/>
<path d="M190.911 76.9077C191.68 77.725 192.541 78.5915 193.653 78.734C195.617 78.9856 197.03 76.9517 197.929 75.1851C197.962 75.6355 198.17 76.0551 198.507 76.3547C198.845 76.6543 199.286 76.8102 199.736 76.7893C200.221 76.7077 200.684 76.5265 201.095 76.2573C204.987 74.1277 209.347 72.9993 213.782 72.9736C213.739 72.6372 213.823 72.2969 214.016 72.0184C214.209 71.74 214.498 71.543 214.828 71.4655C215.73 71.2865 216.542 72.0671 216.977 72.878C217.412 73.6889 217.683 74.6288 218.374 75.2357C219.066 75.8427 220.404 75.8163 220.677 74.9373C220.939 74.0935 220.061 73.3739 219.331 72.8764C218.602 72.3789 217.833 71.4582 218.324 70.724C222.051 69.8981 225.8 69.069 229.613 68.9049C230.263 68.9275 230.909 68.8159 231.514 68.5771C232.095 68.2914 232.557 67.6428 232.401 67.0134C231.569 67.2092 230.697 67.1525 229.898 66.8505C229.098 66.5484 228.406 66.0147 227.91 65.3174C233.201 64.8802 238.829 64.5076 243.518 67.0004C244.081 68.2098 241.213 69.2161 241.98 70.307C242.225 70.6549 242.715 70.6957 243.14 70.7036C246.399 70.7642 249.676 70.8236 252.897 70.331C254.075 70.151 255.264 69.8969 256.446 70.0429C258.415 70.286 260.099 71.6013 262.036 72.0301C262.824 72.2047 263.708 72.2106 264.373 71.7515C265.037 71.2924 265.323 70.247 264.778 69.6501C266.602 67.8605 269.629 68.304 272.035 69.1608C274.441 70.0176 276.72 71.3994 279.266 71.5903C281.092 71.7273 282.944 71.2355 284.748 71.5481C285.882 71.7445 286.937 72.2496 288.045 72.5599C290.141 73.1467 292.358 73.0229 294.535 73.0511C300.087 73.126 305.579 74.2186 310.738 76.2749C311.409 76.4937 312.024 76.8574 312.539 77.3405C313.019 77.8552 313.264 78.655 312.942 79.2808L307.61 78.5009C308.113 79.491 309.412 79.6597 310.467 80.0012C311.523 80.3428 312.617 81.5097 311.983 82.4207C310.839 82.0561 309.803 83.2008 309.226 84.2539C308.648 85.3071 307.944 86.5684 306.746 86.6326C305.673 86.69 304.375 85.7752 303.676 86.592C304.642 87.8125 305.469 89.1371 306.143 90.5411C306.834 91.9825 307.326 93.7987 306.392 95.0955C306.245 95.327 306.022 95.5 305.761 95.5849C304.999 95.7782 304.503 94.8439 303.956 94.2777C303.267 93.5641 302.224 93.362 301.291 93.0273C300.358 92.6926 299.374 92.0343 299.301 91.0442C299.256 90.4282 299.581 89.8556 299.82 89.2863C300.222 88.3267 300.398 87.2872 300.334 86.2486C300.281 85.413 300.047 84.5437 299.448 83.9599C298.849 83.376 297.814 83.1908 297.17 83.7256C296.87 83.9751 296.63 84.3742 296.24 84.3891C295.551 84.4155 295.022 83.2129 294.468 83.6234C294.533 84.0608 294.442 84.5072 294.212 84.8845C292.558 86.3248 290.017 85.7154 287.885 86.2242C286.871 86.5147 285.9 86.9392 284.998 87.4864C284.661 87.6309 284.374 87.8722 284.173 88.1798C283.907 88.6977 284.2 89.361 284.67 89.7053C285.167 90.0108 285.726 90.2019 286.306 90.2647C288.906 90.7576 291.543 91.5207 293.595 93.1924C295.648 94.8642 296.993 97.6276 296.344 100.196L291.218 95.2912C291.412 97.3504 291.523 99.4153 291.549 101.486C291.582 101.89 291.527 102.297 291.387 102.677C291.021 103.486 290.031 103.758 289.163 103.936C288.922 103.982 288.693 104.078 288.491 104.219C288.29 104.36 288.12 104.542 287.994 104.753C287.867 104.964 287.787 105.2 287.758 105.444C287.729 105.688 287.752 105.936 287.826 106.171C288.134 107.177 288.903 107.962 289.607 108.744C290.311 109.525 291.004 110.414 291.096 111.463C291.188 112.511 290.398 113.693 289.349 113.62C288.554 113.565 287.964 112.852 287.625 112.13C287.286 111.408 287.084 110.604 286.574 109.99C285.032 108.133 281.568 108.928 280.186 106.948C279.834 107.348 279.59 107.832 279.477 108.353C279.364 108.874 279.385 109.415 279.54 109.926C280.183 109.523 281.063 109.897 281.546 110.483C282.029 111.068 282.256 111.819 282.636 112.476C283.148 113.363 283.962 114.15 284.033 115.172C284.014 115.559 284.021 115.946 284.053 116.332C284.18 116.951 284.703 117.396 285.065 117.913C285.909 119.118 285.867 120.772 285.323 122.139C284.78 123.506 283.803 124.648 282.836 125.755C281.146 127.689 279.422 129.611 277.419 131.217C276.847 131.675 276.237 132.126 275.881 132.767C275.525 133.407 275.507 134.306 276.054 134.794C275.662 134.813 274.96 135.006 274.569 135.026C274.431 133.454 274.402 131.874 274.48 130.298C272.935 129.555 271.272 131.544 271.471 133.248C271.67 134.952 272.901 136.319 273.778 137.794C274.419 138.872 274.895 140.129 274.681 141.365C274.467 142.601 273.365 143.742 272.116 143.633C270.131 143.459 269.3 140.605 267.334 140.278C267.161 140.238 266.979 140.256 266.817 140.33C266.525 140.49 266.474 140.881 266.458 141.214C266.377 142.848 266.308 144.548 266.945 146.054C267.877 148.258 270.285 150.11 269.78 152.449C267.059 151.183 265.644 148.127 265.002 145.193C264.359 142.258 264.252 139.177 263.101 136.403C262.226 137.525 260.389 136.597 259.59 135.42C258.833 134.304 258.366 133.013 257.631 131.882C256.897 130.751 255.771 129.739 254.425 129.676C253.014 129.611 251.79 130.581 250.713 131.497C249.828 132.251 248.92 133.034 248.402 134.075C247.649 135.591 247.846 137.377 247.81 139.07C247.771 140.899 247.383 142.83 246.138 144.169C244.893 145.508 242.594 145.975 241.22 144.768C240.503 144.137 240.156 143.196 239.847 142.292C238.356 137.936 237.114 133.498 236.128 129C235.897 130.026 234.997 131.349 234.137 130.745C233.944 130.582 233.787 130.38 233.678 130.153C232.074 127.43 229.102 125.797 226.101 124.818C223.099 123.839 219.94 123.382 216.971 122.306C215.308 121.702 213.719 120.91 212.236 119.944C211.858 120.5 211.637 121.148 211.597 121.82C211.557 122.491 211.699 123.161 212.008 123.759C212.667 124.926 214.157 125.602 215.432 125.193C216.092 124.983 216.648 124.524 217.302 124.298C217.956 124.072 218.834 124.183 219.12 124.814C219.394 125.418 218.98 126.148 219.185 126.779C219.498 127.739 220.945 127.813 221.451 128.687C221.827 129.338 221.517 130.201 220.98 130.726C220.443 131.25 219.725 131.538 219.069 131.903C216.941 133.089 215.427 135.112 213.567 136.686C211.707 138.26 209.082 139.409 206.865 138.399C207.394 135.72 204.206 133.753 203.62 131.086C203.427 130.208 203.527 129.275 203.251 128.42C202.852 127.181 201.755 126.33 200.854 125.391C199.762 124.24 198.912 122.882 198.352 121.396C197.793 119.911 197.537 118.328 197.598 116.742C197.647 115.64 197.849 114.52 197.598 113.445C197.347 112.371 196.459 111.331 195.358 111.38C192.844 111.491 189.676 111.678 188.357 109.532C187.886 108.766 187.681 107.644 188.362 107.057C188.842 106.643 189.551 106.682 190.181 106.744L195.847 107.302C197.172 107.433 198.604 107.54 199.741 106.847C200.878 106.153 201.371 104.312 200.318 103.496C199.549 102.9 198.171 102.932 197.947 101.984C197.761 101.195 198.634 100.299 198.162 99.639C197.824 99.1659 197.064 99.2972 196.604 99.6518C196.143 100.006 195.809 100.525 195.294 100.794C194.39 101.265 193.31 100.816 192.337 100.512C191.364 100.207 190.06 100.181 189.589 101.086C189.061 102.097 190.057 103.423 189.533 104.436C188.841 105.777 186.496 105.014 185.524 106.166C184.408 107.489 186.283 109.462 185.907 111.151C185.427 111.39 184.893 111.499 184.358 111.469C183.823 111.439 183.304 111.27 182.854 110.98C182.41 110.678 182.057 110.261 181.831 109.774C181.606 109.287 181.516 108.748 181.572 108.215C181.665 107.454 182.061 106.679 181.796 105.96C181.581 105.379 180.999 105.034 180.458 104.734L174.952 101.688C174.441 102.637 175.087 103.814 175.895 104.527C176.703 105.241 177.716 105.778 178.247 106.716C178.582 107.366 178.658 108.12 178.457 108.824C178.256 109.528 177.795 110.129 177.167 110.504C177.088 110.558 176.999 110.595 176.905 110.611C176.81 110.628 176.714 110.623 176.621 110.599C176.533 110.547 176.457 110.478 176.396 110.397C176.335 110.315 176.291 110.221 176.267 110.122C175.296 107.633 173.837 105.179 171.506 103.879C169.174 102.579 165.824 102.846 164.294 105.036C163.931 105.557 163.688 106.15 163.371 106.7C161.69 109.622 158.087 111.006 154.72 110.915C154.391 110.934 154.063 110.856 153.776 110.693C153.232 110.317 153.257 109.519 153.34 108.862L153.693 106.074C153.764 105.515 153.867 104.896 154.31 104.546C154.933 104.054 155.833 104.365 156.627 104.353C157.229 104.325 157.808 104.112 158.285 103.744C158.761 103.375 159.114 102.869 159.293 102.293C159.454 101.712 159.453 101.098 159.29 100.517C159.128 99.9359 158.81 99.4104 158.372 98.997C158.008 98.6546 157.519 98.2246 157.711 97.763C157.788 97.6354 157.892 97.5261 158.015 97.4429C158.139 97.3596 158.279 97.3045 158.426 97.2813C159.853 96.8665 161.36 96.7577 162.763 96.2683C164.166 95.7788 165.527 94.7773 165.859 93.3274C165.961 92.8831 166.007 92.3449 166.406 92.1246C166.606 92.04 166.821 91.9961 167.038 91.9953C167.798 91.887 168.491 91.4974 168.979 90.9034C169.467 90.3094 169.715 89.554 169.675 88.7858C170.347 88.3154 171.289 88.6614 171.94 89.1618C172.59 89.6621 173.165 90.3231 173.956 90.5388C175.431 90.9407 176.856 89.6332 178.385 89.6271C179.028 89.6245 179.693 89.8521 180.298 89.6339C180.911 89.4127 181.277 88.8016 181.748 88.3502C182.218 87.8988 183.044 87.6234 183.478 88.1097L183.109 85.3657C183.854 85.5542 184.63 85.5809 185.387 85.444C186.143 85.3071 186.861 85.0098 187.493 84.572L182.711 82.9543C182.545 82.9127 182.391 82.8304 182.264 82.7149C181.917 82.3401 182.262 81.756 182.545 81.3299C183.221 80.3107 183.334 78.6317 182.222 78.1242C181.463 77.7779 180.592 78.1936 179.863 78.6004L176.373 80.5488C176.262 81.2131 177.074 81.5895 177.576 82.037C177.88 82.3077 178.096 82.6641 178.194 83.0596C178.292 83.455 178.268 83.8709 178.126 84.2527C177.984 84.6344 177.729 84.9641 177.397 85.1985C177.064 85.4329 176.668 85.561 176.261 85.566C176.491 85.8652 176.65 86.2123 176.728 86.5816C176.806 86.9509 176.8 87.333 176.71 87.6996L174.362 87.8687C174.098 87.9218 173.824 87.8683 173.6 87.7199C173.349 87.4965 173.383 87.1052 173.325 86.7739C173.184 85.9745 172.402 85.4141 171.604 85.2705C170.806 85.1268 169.99 85.311 169.2 85.4928C168.865 85.6137 168.496 85.6052 168.166 85.4689C167.978 85.346 167.834 85.1645 167.758 84.9522C167.411 84.1112 167.735 83.1227 168.291 82.4036C168.848 81.6844 169.609 81.1587 170.293 80.5599C171.929 79.1229 173.131 77.2566 173.763 75.1717C175.056 74.6294 176.394 73.8925 177.687 73.3502C179.68 72.3399 181.915 71.9063 184.14 72.0983L188.518 72.182C189.814 72.2068 191.145 72.2385 192.344 72.7333C193.542 73.228 194.595 74.2981 194.678 75.5935C194.703 75.7401 194.69 75.8907 194.641 76.0311C194.592 76.1715 194.508 76.2971 194.397 76.3962C194.228 76.4886 194.036 76.5319 193.844 76.5211C192.635 76.5636 192.12 76.8652 190.911 76.9077Z" fill="#2F2E41"/>
<path d="M156.017 90.6452C156.188 90.4831 156.311 90.277 156.373 90.0494C156.434 89.8218 156.432 89.5816 156.366 89.3552C155.95 89.1944 155.497 89.1531 155.059 89.236C154.621 89.3189 154.214 89.5226 153.885 89.8243C153.626 90.087 153.402 90.3828 153.22 90.7042C152.645 91.6439 152.136 92.7664 152.47 93.8168C152.497 93.9314 152.547 94.0393 152.616 94.1344C152.685 94.2294 152.773 94.3096 152.874 94.3703C153.023 94.4304 153.184 94.4556 153.345 94.4442C153.979 94.4434 154.612 94.4044 155.241 94.3274C155.627 94.2801 156.076 94.1708 156.225 93.811C156.421 93.3379 155.946 92.8026 156.085 92.3095C156.176 92.089 156.314 91.891 156.489 91.7295C156.576 91.6481 156.643 91.5475 156.685 91.4358C156.726 91.324 156.741 91.2042 156.728 91.0857C156.672 90.8543 156.318 90.723 156.191 90.9241" fill="#2F2E41"/>
<path d="M159.303 86.3798C158.74 86.2504 158.16 86.2139 157.585 86.2718C157.458 86.268 157.332 86.2967 157.219 86.3551C157.11 86.4359 157.03 86.551 156.993 86.6822C156.872 87.0723 156.902 87.4938 157.077 87.8629C157.252 88.2319 157.56 88.5214 157.938 88.6736C158.145 88.7211 158.342 88.8007 158.524 88.9094C159.01 89.2869 158.7 90.0584 158.792 90.6673C158.896 91.3509 159.557 91.9248 159.436 92.6056C159.34 93.1419 158.768 93.5665 158.86 94.1034C158.957 94.6657 159.669 94.8347 160.237 94.8797C160.566 94.9375 160.905 94.8986 161.213 94.7678C161.521 94.5567 161.741 94.2387 161.829 93.8751C162.061 93.182 162.159 92.4507 162.116 91.7208C162.114 91.3888 162.031 91.0624 161.874 90.7699C161.703 90.5381 161.513 90.3207 161.307 90.1198C160.219 88.8522 161.364 86.9615 159.303 86.3798Z" fill="#2F2E41"/>
<path opacity="0.8" d="M302.421 185.678C302.421 185.678 219.063 137.768 183.176 146.846C183.176 146.846 107.122 155.041 98.3076 173.07C98.3076 173.07 74.1313 97.4239 65.317 94.9023" stroke="url(#paint0_radial_361_2548)" stroke-width="2" stroke-miterlimit="10"/>
<path opacity="0.8" d="M98.3076 173.07C112.284 135.751 238.203 94.3979 238.203 94.3979C220.322 98.9367 183.176 146.846 183.176 146.846C183.176 146.846 104.603 89.607 65.317 94.9023C65.317 94.9023 238.328 100.576 302.421 185.678" stroke="url(#paint1_radial_361_2548)" stroke-width="2" stroke-miterlimit="10"/>
<path d="M65.317 98.5586C67.3337 98.5586 68.9686 96.9216 68.9686 94.9023C68.9686 92.883 67.3337 91.2461 65.317 91.2461C63.3003 91.2461 61.6654 92.883 61.6654 94.9023C61.6654 96.9216 63.3003 98.5586 65.317 98.5586Z" fill="url(#paint2_radial_361_2548)"/>
<path d="M98.3076 176.727C100.324 176.727 101.959 175.09 101.959 173.07C101.959 171.051 100.324 169.414 98.3076 169.414C96.2908 169.414 94.6559 171.051 94.6559 173.07C94.6559 175.09 96.2908 176.727 98.3076 176.727Z" fill="url(#paint3_radial_361_2548)"/>
<path d="M238.203 98.0542C240.219 98.0542 241.854 96.4172 241.854 94.3979C241.854 92.3787 240.219 90.7417 238.203 90.7417C236.186 90.7417 234.551 92.3787 234.551 94.3979C234.551 96.4172 236.186 98.0542 238.203 98.0542Z" fill="url(#paint4_radial_361_2548)"/>
<path d="M302.421 189.334C304.438 189.334 306.072 187.697 306.072 185.678C306.072 183.658 304.438 182.021 302.421 182.021C300.404 182.021 298.769 183.658 298.769 185.678C298.769 187.697 300.404 189.334 302.421 189.334Z" fill="url(#paint5_radial_361_2548)"/>
<path d="M183.176 150.502C185.193 150.502 186.828 148.865 186.828 146.846C186.828 144.827 185.193 143.19 183.176 143.19C181.16 143.19 179.525 144.827 179.525 146.846C179.525 148.865 181.16 150.502 183.176 150.502Z" fill="url(#paint6_radial_361_2548)"/>
</g>
<defs>
<radialGradient id="paint0_radial_361_2548" cx="0" cy="0" r="1" gradientUnits="userSpaceOnUse" gradientTransform="translate(72.8842 94.9023) rotate(26.0879) scale(206.425 621.504)">
<stop stop-color="#93B4D4"/>
<stop offset="1" stop-color="#57A9F5" stop-opacity="0.8"/>
</radialGradient>
<radialGradient id="paint1_radial_361_2548" cx="0" cy="0" r="1" gradientUnits="userSpaceOnUse" gradientTransform="translate(72.8842 94.3979) rotate(26.2134) scale(206.648 624.284)">
<stop stop-color="#93B4D4"/>
<stop offset="1" stop-color="#57A9F5" stop-opacity="0.8"/>
</radialGradient>
<radialGradient id="paint2_radial_361_2548" cx="0" cy="0" r="1" gradientUnits="userSpaceOnUse" gradientTransform="translate(61.8985 91.2461) rotate(52.0127) scale(9.27805 34.3102)">
<stop stop-color="#93B4D4"/>
<stop offset="1" stop-color="#57A9F5" stop-opacity="0.8"/>
</radialGradient>
<radialGradient id="paint3_radial_361_2548" cx="0" cy="0" r="1" gradientUnits="userSpaceOnUse" gradientTransform="translate(94.889 169.414) rotate(52.0127) scale(9.27805 34.3102)">
<stop stop-color="#93B4D4"/>
<stop offset="1" stop-color="#57A9F5" stop-opacity="0.8"/>
</radialGradient>
<radialGradient id="paint4_radial_361_2548" cx="0" cy="0" r="1" gradientUnits="userSpaceOnUse" gradientTransform="translate(234.784 90.7417) rotate(52.0127) scale(9.27804 34.3102)">
<stop stop-color="#93B4D4"/>
<stop offset="1" stop-color="#57A9F5" stop-opacity="0.8"/>
</radialGradient>
<radialGradient id="paint5_radial_361_2548" cx="0" cy="0" r="1" gradientUnits="userSpaceOnUse" gradientTransform="translate(299.002 182.021) rotate(52.0127) scale(9.27805 34.3103)">
<stop stop-color="#93B4D4"/>
<stop offset="1" stop-color="#57A9F5" stop-opacity="0.8"/>
</radialGradient>
<radialGradient id="paint6_radial_361_2548" cx="0" cy="0" r="1" gradientUnits="userSpaceOnUse" gradientTransform="translate(179.758 143.19) rotate(52.0126) scale(9.27805 34.3102)">
<stop stop-color="#93B4D4"/>
<stop offset="1" stop-color="#57A9F5" stop-opacity="0.8"/>
</radialGradient>
<clipPath id="clip0_361_2548">
<rect width="359" height="267" fill="white"/>
</clipPath>
</defs>
</svg>
