<svg width="433" height="336" viewBox="0 0 433 336" fill="none" xmlns="http://www.w3.org/2000/svg">
<g clip-path="url(#clip0_361_2582)">
<path d="M56.4892 147.855C40.3712 141.087 27.4505 128.417 20.3721 112.437C16.4118 103.385 14.4783 93.5688 13.3774 83.7504C12.2973 74.1176 12.0768 63.9565 16.2238 55.1946C18.4944 50.3973 21.9694 46.2698 26.3103 43.2144C30.6512 40.159 35.7099 38.2798 40.9933 37.76C46.2768 37.2402 51.6048 38.0976 56.4583 40.2485C61.3117 42.3994 65.525 45.7705 68.6875 50.0333C71.4095 53.7024 73.3233 58.1049 73.3721 62.6727C73.4746 72.2538 65.7679 79.9429 62.387 88.9087C58.8932 98.174 60.1525 108.44 60.7464 118.324C61.3404 128.208 60.9639 138.923 54.9647 146.801" fill="#F2F2F2"/>
<path d="M345.564 269.006C362.585 265.021 377.439 254.682 387.084 240.106C392.499 231.841 396.044 222.485 398.767 212.987C401.439 203.67 403.352 193.687 400.725 184.357C399.287 179.248 396.549 174.599 392.779 170.863C389.008 167.126 384.334 164.43 379.211 163.037C374.088 161.643 368.692 161.6 363.548 162.912C358.403 164.223 353.687 166.845 349.857 170.521C346.561 173.685 343.94 177.706 343.129 182.202C341.43 191.632 347.746 200.498 349.583 209.902C351.482 219.62 348.528 229.532 346.293 239.179C344.059 248.825 342.642 259.453 347.243 268.221" fill="#F2F2F2"/>
<path d="M215.751 253.62C191.489 253.697 167.883 245.744 148.618 231.001C129.755 216.594 115.974 196.554 109.275 173.789L110.234 173.51C123.783 220.09 167.173 252.622 215.751 252.622C230.276 252.649 244.66 249.78 258.062 244.182L258.447 245.104C244.923 250.753 230.408 253.648 215.751 253.62Z" fill="#E6E6E6"/>
<path d="M320.633 109.959C306.221 63.8978 264.072 32.9507 215.751 32.9507C201.432 32.9247 187.248 35.7128 174.005 41.1562L173.625 40.2328C191.34 32.9801 210.63 30.429 229.623 32.8273C248.615 35.2255 266.664 42.4915 282.019 53.9201C300.706 67.9151 314.542 87.4067 321.586 109.661L320.633 109.959Z" fill="#E6E6E6"/>
<path d="M350.595 288.568C305.157 288.568 268.19 251.614 268.19 206.191C268.19 160.768 305.157 123.814 350.595 123.814C396.034 123.814 433 160.768 433 206.191C433 251.614 396.034 288.568 350.595 288.568ZM350.595 124.813C305.708 124.813 269.189 161.319 269.189 206.191C269.189 251.064 305.708 287.57 350.595 287.57C395.483 287.57 432.001 251.064 432.001 206.191C432.001 161.319 395.483 124.813 350.595 124.813Z" fill="#3F3D56"/>
<path d="M82.4048 164.754C36.9666 164.754 0 127.8 0 82.3768C0 36.954 36.9666 0 82.4048 0C127.843 0 164.81 36.954 164.81 82.3768C164.81 127.8 127.843 164.754 82.4048 164.754ZM82.4048 0.998507C37.5175 0.998507 0.998847 37.5047 0.998847 82.3768C0.998847 127.249 37.5175 163.755 82.4048 163.755C127.292 163.755 163.811 127.249 163.811 82.3768C163.811 37.5047 127.292 0.998507 82.4048 0.998507Z" fill="#3F3D56"/>
<path d="M75.9977 82.8401L68.7209 96.9682L75.9059 101.086C75.9059 101.086 80.835 85.2161 80.9801 84.6139C81.7234 84.3102 82.3569 83.7882 82.7969 83.1168C83.2369 82.4454 83.4626 81.6563 83.4441 80.8538C83.4257 80.0514 83.1641 79.2735 82.6938 78.6229C82.2235 77.9724 81.5667 77.4799 80.8103 77.2107C80.0539 76.9414 79.2336 76.908 78.4578 77.115C77.682 77.3219 76.9874 77.7594 76.4658 78.3696C75.9441 78.9797 75.6201 79.7338 75.5365 80.5321C75.4529 81.3304 75.6138 82.1352 75.9977 82.8401Z" fill="#A0616A"/>
<path d="M38.6531 84.7617C41.8991 96.784 53.5664 104.42 63.2549 113.574C64.448 113.993 65.7152 114.158 66.9757 114.059C68.2361 113.96 69.4621 113.599 70.5751 112.999C71.6881 112.4 72.6638 111.574 73.4396 110.576C74.2155 109.579 74.7744 108.43 75.0808 107.203L78.3463 94.4285L70.0467 94.2067L66.6119 97.9383L55.4983 90.0216L38.6531 84.7617Z" fill="#3F3D56"/>
<path d="M338.344 218.991C339.754 219.084 341.071 219.722 342.017 220.77C342.962 221.819 343.461 223.195 343.408 224.605C343.392 224.892 343.353 225.177 343.291 225.457L359.293 235.535L350.446 239.446L336.606 229.277C335.465 228.928 334.47 228.211 333.779 227.238C333.087 226.265 332.737 225.09 332.784 223.898C332.817 223.219 332.983 222.554 333.273 221.94C333.563 221.326 333.972 220.775 334.475 220.318C334.978 219.862 335.566 219.509 336.206 219.28C336.845 219.051 337.524 218.95 338.203 218.983C338.25 218.985 338.297 218.988 338.344 218.991Z" fill="#FFB6B6"/>
<path d="M353.776 230.955L349.81 239.135L365.491 249.222C366.606 249.946 367.889 250.373 369.216 250.462C370.543 250.551 371.871 250.299 373.074 249.73C374.535 249.031 375.73 247.875 376.478 246.438C377.226 245 377.486 243.359 377.219 241.761L372.131 212.722C371.789 210.69 370.681 208.866 369.036 207.625C367.39 206.384 365.331 205.821 363.283 206.051C361.268 206.272 359.423 207.283 358.154 208.863C356.885 210.443 356.296 212.463 356.516 214.477C356.525 214.556 356.534 214.634 356.546 214.713C356.584 214.992 356.637 215.269 356.706 215.542L362.26 236.194L353.776 230.955Z" fill="#93B4D4"/>
<path d="M339.524 234.27L333.618 219.039C333.417 218.517 333.431 217.937 333.656 217.426C333.882 216.915 334.302 216.514 334.823 216.311L338.143 215.025C338.665 214.823 339.245 214.837 339.757 215.063C340.268 215.288 340.669 215.707 340.872 216.228L346.777 231.46C346.978 231.982 346.965 232.562 346.739 233.073C346.513 233.584 346.094 233.985 345.573 234.188L342.252 235.474C341.73 235.676 341.15 235.662 340.639 235.436C340.127 235.211 339.726 234.791 339.524 234.27Z" fill="#3F3D56"/>
<path d="M335.512 216.938C335.232 217.047 335.006 217.263 334.884 217.539C334.762 217.814 334.755 218.127 334.864 218.408L340.769 233.64C340.878 233.92 341.094 234.146 341.37 234.268C341.645 234.39 341.958 234.397 342.239 234.288L345.56 233.002C345.841 232.893 346.067 232.677 346.188 232.401C346.31 232.126 346.317 231.813 346.209 231.532L340.304 216.3C340.194 216.02 339.978 215.794 339.703 215.672C339.427 215.55 339.114 215.543 338.833 215.652L335.512 216.938Z" fill="#93B4D4"/>
<path d="M352.661 266.054H375.087V243.636H352.661V266.054Z" fill="#FFB8B8"/>
<path d="M299.479 309.658L290.914 306.777L286.145 330.082L291.948 332.034L299.479 309.658Z" fill="#FFB6B6"/>
<path d="M314.668 305.225L305.874 307.304L314.144 329.608L320.102 328.199L314.668 305.225Z" fill="#FFB6B6"/>
<path d="M374.282 271.91C378.777 301.865 318.921 284.155 318.921 284.155L300.153 310.036L289.166 308.039C289.166 308.039 294.11 292.502 302.939 271.674C306.86 262.424 351.383 264.685 351.383 264.685L352.308 257.432L377.778 256.933L374.282 271.91Z" fill="#2F2E41"/>
<path d="M317.031 277.729L300.73 278.104C303.343 300.574 305.647 309.538 305.647 309.538L315.136 306.542L317.031 277.729Z" fill="#2F2E41"/>
<path d="M361.471 207.206L365.985 201.406L372.424 201.127L373.066 206.582L376.257 208.053C379.443 220.151 379.935 232.801 377.698 245.111C377.271 245.513 376.958 246.022 376.793 246.586C376.628 247.149 376.616 247.746 376.759 248.316L376.966 249.14L376.947 249.17C376.268 250.241 376.038 251.536 376.306 252.775L377.829 255.482C378.376 256.455 378.704 257.536 378.791 258.648C378.878 259.761 378.721 260.88 378.331 261.926C377.942 262.972 377.329 263.921 376.536 264.706C375.742 265.492 374.787 266.095 373.737 266.474C364.371 269.868 355.592 271.132 349.097 261.609L347.055 228.423L361.471 207.206Z" fill="#93B4D4"/>
<path d="M366.2 202.946C372.775 202.946 378.105 197.617 378.105 191.045C378.105 184.472 372.775 179.144 366.2 179.144C359.625 179.144 354.295 184.472 354.295 191.045C354.295 197.617 359.625 202.946 366.2 202.946Z" fill="#FFB8B8"/>
<path d="M372.176 176.699C377.217 176.796 381.215 181.47 381.106 187.139C384.836 191.03 383.603 195.791 380.486 200.882C374.784 201.544 373.453 201.82 368.453 203.858L367.794 200.781L366.301 204.788C365.03 205.374 363.769 206.017 362.518 206.717C361.618 202.593 361.841 198.584 364.259 195.092C366.406 191.99 361.18 188.308 357.442 188.828L357.497 185.979L356.558 188.811C355.101 189.881 353.49 189.494 351.837 188.72C349.157 174.797 369.906 170.989 372.176 176.699Z" fill="#2F2E41"/>
<path d="M294.586 335.977L290.77 335.478L290.56 331.788L288.345 335.162L278.224 333.84C277.739 333.777 277.287 333.56 276.934 333.222C276.58 332.883 276.345 332.441 276.261 331.959C276.177 331.477 276.249 330.981 276.467 330.543C276.686 330.106 277.038 329.749 277.473 329.526L286.284 325.001L286.76 321.36L295.194 322.978L294.586 335.977Z" fill="#2F2E41"/>
<path d="M322.292 333.876L318.475 334.367L317.33 330.852L316.049 334.679L305.926 335.981C305.441 336.043 304.948 335.949 304.521 335.712C304.093 335.475 303.752 335.107 303.548 334.663C303.344 334.218 303.287 333.72 303.387 333.241C303.486 332.762 303.736 332.328 304.099 332.001L311.465 325.38L310.996 321.738L319.564 321.151L322.292 333.876Z" fill="#2F2E41"/>
<path d="M339.78 221.776C341.189 221.868 342.507 222.506 343.452 223.555C344.398 224.603 344.897 225.979 344.843 227.39C344.828 227.676 344.789 227.961 344.726 228.241L360.729 238.319L351.882 242.231L338.042 232.061C336.9 231.712 335.906 230.995 335.214 230.022C334.523 229.049 334.173 227.875 334.22 226.682C334.253 226.003 334.419 225.338 334.709 224.724C334.999 224.11 335.407 223.559 335.911 223.102C336.414 222.646 337.002 222.293 337.642 222.064C338.281 221.835 338.96 221.734 339.638 221.767C339.686 221.769 339.733 221.772 339.78 221.776Z" fill="#FFB6B6"/>
<path d="M355.211 233.739L351.245 241.919L366.926 252.006C368.042 252.73 369.324 253.157 370.652 253.246C371.979 253.335 373.307 253.083 374.509 252.514C375.971 251.815 377.166 250.659 377.913 249.222C378.661 247.784 378.921 246.143 378.654 244.545L373.566 215.506C373.225 213.474 372.117 211.65 370.471 210.409C368.826 209.169 366.767 208.605 364.718 208.836C363.721 208.945 362.754 209.249 361.874 209.732C360.994 210.214 360.218 210.865 359.589 211.647C358.961 212.43 358.493 213.328 358.212 214.291C357.931 215.255 357.843 216.264 357.952 217.261C357.96 217.34 357.97 217.418 357.981 217.497C358.02 217.776 358.073 218.053 358.141 218.326L363.696 238.978L355.211 233.739Z" fill="#93B4D4"/>
<path d="M55.1438 232.161L60.174 234.429L71.3201 216.114L63.8962 212.766L55.1438 232.161Z" fill="#A0616A"/>
<path d="M52.5994 237.327L68.0673 244.302L68.1556 244.107C68.8759 242.511 68.9324 240.694 68.3128 239.056C67.6931 237.418 66.4481 236.093 64.8514 235.373L62.9928 231.956L56.754 231.721L55.4037 231.112L52.5994 237.327Z" fill="#2F2E41"/>
<path d="M117.444 207.252L122.756 205.762L119.532 184.566L111.691 186.767L117.444 207.252Z" fill="#A0616A"/>
<path d="M118.812 212.845L135.15 208.26L135.092 208.054C134.619 206.368 133.495 204.939 131.967 204.082C130.44 203.224 128.635 203.008 126.948 203.481L123.328 202.056L118.395 205.882L116.969 206.282L118.812 212.845Z" fill="#2F2E41"/>
<path d="M37.0363 145.321C37.1722 149.25 45.5314 159.851 49.9277 161.371C50.675 161.63 51.1118 161.772 51.1118 161.772L52.6419 161.31L71.1719 155.705C74.4166 157.613 84.0957 158.583 92.0376 159.068C98.3588 159.453 101.882 162.757 101.882 162.757C103.747 176.935 109.123 187.271 115.323 199.974L122.764 198.68L115.734 151.362C115.583 150.34 115.134 149.386 114.444 148.617C113.754 147.848 112.853 147.298 111.853 147.037L61.289 133.815C61.289 133.815 58.5005 133.311 52.6193 136.147C42.9369 140.816 36.9393 142.462 37.0363 145.321Z" fill="#2F2E41"/>
<path d="M46.6983 144.561C45.0025 148.108 47.5155 161.371 50.7117 164.75L51.5601 165.327L51.847 165.476C53.7643 171.959 74.3396 190.921 74.3396 190.921C67.3897 199.772 61.1961 210.57 58.4325 222.668L66.4687 225.603L89.0898 191.844C89.6823 190.96 89.9932 189.917 89.9816 188.853C89.9699 187.789 89.6363 186.753 89.0246 185.882L79.7961 172.741L64.7587 143.623C54.0135 143.292 47.9337 141.981 46.6983 144.561Z" fill="#2F2E41"/>
<path d="M37.3388 146.866C37.3139 146.866 36.7249 145.324 36.7129 145.321C36.5127 145.265 33.8014 144.998 34.4112 140.51L35.1913 135.572L34.4297 131.211L33.1487 129.931L35.2075 127.873L33.9458 118.539L33.4614 99.8508C32.2456 93.4314 32.5631 87.5602 38.4527 84.733L45.2047 78.4723L52.8879 78.3794L61.6046 83.5452L65.8279 91.9617L67.4659 114.772L68.689 117.624L68.5843 117.719C68.5761 117.726 67.7613 118.463 67.3953 118.868C67.218 119.12 67.5506 121 67.9614 122.596L68.4882 126.536L67.1607 127.484L68.8866 129.522L73.5918 137.473L73.3099 137.403C72.9924 137.324 70.0334 141.764 37.5562 146.701C37.4064 146.724 37.4011 146.866 37.3388 146.866Z" fill="#3F3D56"/>
<path d="M74.5272 97.5004L71.8386 96.098C71.4168 95.8773 71.0997 95.4985 70.957 95.0444C70.8143 94.5904 70.8576 94.0984 71.0774 93.6762L77.5144 81.3443C77.7351 80.9226 78.1141 80.6057 78.5683 80.463C79.0224 80.3204 79.5147 80.3636 79.937 80.5833L82.6256 81.9858C83.0474 82.2064 83.3644 82.5852 83.5071 83.0393C83.6498 83.4933 83.6066 83.9853 83.3868 84.4075L76.9498 96.7394C76.7291 97.1611 76.3501 97.478 75.8959 97.6207C75.4417 97.7633 74.9495 97.7201 74.5272 97.5004Z" fill="#3F3D56"/>
<path d="M79.2941 81.0483C79.0665 80.9299 78.8012 80.9066 78.5565 80.9835C78.3117 81.0604 78.1075 81.2312 77.9886 81.4584L71.5515 93.7903C71.4331 94.0178 71.4098 94.283 71.4867 94.5276C71.5636 94.7723 71.7345 94.9765 71.9618 95.0954L74.6504 96.4978C74.8779 96.6162 75.1432 96.6395 75.3879 96.5626C75.6327 96.4857 75.8369 96.3149 75.9559 96.0877L82.3929 83.7558C82.5113 83.5283 82.5346 83.2631 82.4577 83.0185C82.3808 82.7738 82.21 82.5696 81.9826 82.4507L79.2941 81.0483Z" fill="#93B4D4"/>
<path d="M50.7775 76.6959C56.8445 76.6959 61.7628 71.7793 61.7628 65.7144C61.7628 59.6495 56.8445 54.7329 50.7775 54.7329C44.7106 54.7329 39.7923 59.6495 39.7923 65.7144C39.7923 71.7793 44.7106 76.6959 50.7775 76.6959Z" fill="#A0616A"/>
<path d="M45.3746 72.7875C44.893 72.4046 44.2922 72.2029 43.6771 72.2176C43.4862 72.249 43.3042 72.3205 43.1431 72.4275C42.982 72.5344 42.8454 72.6744 42.7424 72.838C42.6852 72.91 42.6109 72.9665 42.5263 73.0025C42.4418 73.0385 42.3495 73.0528 42.258 73.0441C41.0858 73.0868 38.5874 70.913 38.4166 66.7188C38.3354 64.7254 37.1423 61.3524 39.0416 59.5255C39.1689 58.7883 40.652 51.1684 47.3373 50.9584C54.1816 50.741 58.7378 52.1154 59.8323 54.723C60.5924 56.7933 61.1702 58.926 61.5593 61.0967L61.7888 62.3874L61.2525 61.1911C61.2424 61.1687 60.2643 59.0269 58.4505 58.3124C58.4211 58.661 58.3324 59.002 58.1883 59.3207C57.5964 60.6029 56.1045 61.4397 54.3873 61.4526C53.2008 61.4161 52.0307 61.1646 50.934 60.7103C51.0582 60.8894 51.1279 61.1007 51.1348 61.3185C51.1416 61.5363 51.0853 61.7515 50.9726 61.9381C50.8599 62.1247 50.6956 62.2747 50.4995 62.37C50.3035 62.4654 50.0841 62.502 49.8677 62.4755L49.5502 62.4361C49.4501 62.4236 49.3489 62.4465 49.264 62.5008C49.1791 62.5552 49.1159 62.6375 49.0853 62.7336C49.0548 62.8296 49.0589 62.9333 49.0968 63.0267C49.1348 63.12 49.2043 63.1972 49.2932 63.2447L49.5727 63.3941L49.2334 63.5581C47.8678 64.1672 46.7425 65.2115 46.0335 66.5277C45.3246 67.844 45.0719 69.3579 45.3151 70.833L45.7107 73.0572L45.3746 72.7875Z" fill="#2F2E41"/>
<path d="M219.302 242.477C219.001 242.491 218.704 242.412 218.45 242.252C218.196 242.091 217.997 241.856 217.881 241.578C217.765 241.301 217.737 240.995 217.801 240.701C217.865 240.407 218.018 240.14 218.239 239.936L218.339 239.537C218.326 239.505 218.313 239.473 218.299 239.441C217.997 238.726 217.489 238.117 216.842 237.69C216.194 237.262 215.434 237.036 214.658 237.039C213.881 237.041 213.123 237.274 212.478 237.706C211.834 238.138 211.331 238.751 211.034 239.468C209.845 242.329 208.333 245.195 207.96 248.22C207.796 249.557 207.865 250.912 208.165 252.226C205.374 246.14 203.924 239.525 203.915 232.83C203.914 231.15 204.008 229.471 204.195 227.801C204.349 226.432 204.563 225.073 204.838 223.724C206.333 216.403 209.545 209.541 214.209 203.702C216.466 202.47 218.292 200.577 219.44 198.277C219.856 197.45 220.149 196.567 220.312 195.656C220.058 195.689 219.799 195.71 219.544 195.727C219.465 195.731 219.381 195.735 219.302 195.74L219.272 195.741C218.992 195.753 218.715 195.685 218.473 195.543C218.231 195.402 218.035 195.194 217.909 194.944C217.783 194.694 217.732 194.412 217.762 194.134C217.792 193.855 217.902 193.592 218.079 193.374C218.189 193.239 218.299 193.104 218.409 192.969C218.576 192.76 218.747 192.555 218.914 192.347C218.933 192.327 218.951 192.306 218.968 192.284C219.16 192.046 219.352 191.813 219.544 191.575C219.194 191.031 218.722 190.575 218.167 190.244C216.242 189.117 213.587 189.897 212.197 191.637C210.803 193.378 210.54 195.819 211.024 197.993C211.5 199.843 212.288 201.598 213.353 203.184C213.249 203.318 213.141 203.447 213.036 203.581C211.128 206.033 209.466 208.666 208.072 211.443C208.411 208.332 208.006 205.186 206.891 202.262C205.761 199.537 203.644 197.242 201.779 194.887C199.539 192.057 194.945 193.292 194.55 196.879C194.547 196.914 194.543 196.948 194.539 196.983C194.816 197.139 195.087 197.305 195.353 197.481C195.686 197.703 195.944 198.021 196.094 198.393C196.243 198.765 196.276 199.173 196.19 199.564C196.103 199.956 195.9 200.311 195.608 200.585C195.315 200.859 194.947 201.039 194.55 201.1L194.51 201.106C194.609 202.104 194.783 203.093 195.032 204.065C195.752 206.777 197.026 209.311 198.772 211.509C200.518 213.706 202.7 215.519 205.18 216.834C205.343 216.918 205.501 217.001 205.664 217.08C204.264 221.048 203.385 225.18 203.051 229.374C202.862 231.848 202.873 234.334 203.084 236.806L203.072 236.719C202.537 233.97 201.07 231.489 198.918 229.696C195.722 227.071 191.206 226.104 187.757 223.994C187.391 223.759 186.965 223.634 186.529 223.632C186.094 223.631 185.667 223.755 185.299 223.988C184.932 224.222 184.639 224.555 184.454 224.95C184.27 225.344 184.203 225.783 184.26 226.215C184.265 226.246 184.269 226.276 184.274 226.307C184.788 226.516 185.289 226.757 185.773 227.029C186.05 227.185 186.321 227.351 186.586 227.526C186.92 227.749 187.178 228.067 187.327 228.439C187.477 228.811 187.51 229.219 187.423 229.61C187.337 230.002 187.134 230.357 186.841 230.631C186.549 230.905 186.18 231.085 185.784 231.146L185.744 231.152C185.714 231.156 185.689 231.16 185.66 231.165C186.538 233.261 187.771 235.191 189.304 236.869C191.198 238.901 193.488 240.524 196.032 241.64C198.575 242.756 201.321 243.341 204.099 243.358H204.103C204.857 246.634 205.95 249.823 207.363 252.873H219.01C219.052 252.743 219.089 252.61 219.127 252.48C218.049 252.548 216.966 252.484 215.904 252.288C216.768 251.229 217.632 250.16 218.496 249.1C218.516 249.08 218.534 249.06 218.551 249.038C218.989 248.495 219.431 247.957 219.87 247.414L219.87 247.414C219.893 245.751 219.702 244.092 219.302 242.477Z" fill="#E6E6E6"/>
<path d="M275.286 61.941C275.511 62.1407 275.669 62.4047 275.739 62.6971C275.808 62.9896 275.787 63.2964 275.676 63.576C275.565 63.8555 275.371 64.0944 275.121 64.2601C274.87 64.4259 274.574 64.5105 274.273 64.5026L273.922 64.7185C273.91 64.7506 273.897 64.7828 273.884 64.815C273.602 65.5379 273.54 66.3281 273.705 67.0863C273.871 67.8444 274.257 68.5368 274.815 69.0763C275.373 69.6159 276.078 69.9786 276.841 70.1189C277.605 70.2592 278.393 70.1709 279.106 69.865C281.955 68.6452 285.039 67.6485 287.418 65.7421C288.469 64.899 289.366 63.88 290.068 62.7304C287.818 69.0363 284.237 74.7847 279.569 79.5858C278.397 80.7894 277.158 81.9265 275.858 82.9918C274.792 83.8642 273.689 84.688 272.551 85.463C266.368 89.6621 259.277 92.3352 251.86 93.2627C249.384 92.5694 246.755 92.6516 244.327 93.4982C243.451 93.8002 242.625 94.2273 241.872 94.7662C242.078 94.9199 242.278 95.0856 242.472 95.2513C242.531 95.3037 242.594 95.3589 242.654 95.4113L242.676 95.4312C242.885 95.6175 243.036 95.8602 243.11 96.1302C243.185 96.4002 243.18 96.6859 243.095 96.953C243.011 97.2201 242.851 97.4571 242.635 97.6355C242.419 97.814 242.157 97.9262 241.878 97.9587C241.705 97.9789 241.532 97.999 241.359 98.0189C241.093 98.0518 240.828 98.0788 240.563 98.1118C240.535 98.1125 240.508 98.1149 240.48 98.1188C240.177 98.1551 239.876 98.1885 239.572 98.2249C239.444 98.8589 239.463 99.5141 239.63 100.139C240.221 102.289 242.667 103.583 244.878 103.306C247.091 103.033 248.984 101.468 250.155 99.5733C251.106 97.9162 251.767 96.1094 252.112 94.2304C252.28 94.2076 252.448 94.1907 252.616 94.1679C255.694 93.7428 258.723 93.0171 261.66 92.0013C259.246 93.9924 257.338 96.528 256.095 99.3996C255.002 102.139 254.916 105.26 254.607 108.248C254.236 111.838 258.388 114.158 261.175 111.865C261.202 111.843 261.229 111.821 261.256 111.798C261.166 111.493 261.088 111.185 261.02 110.875C260.937 110.483 260.974 110.075 261.127 109.704C261.279 109.334 261.54 109.018 261.876 108.798C262.211 108.579 262.605 108.465 263.006 108.473C263.406 108.481 263.795 108.61 264.122 108.842L264.155 108.866C264.781 108.083 265.347 107.253 265.847 106.383C267.225 103.938 268.083 101.235 268.366 98.4428C268.65 95.6508 268.353 92.8302 267.496 90.1581C267.437 89.9847 267.382 89.8143 267.321 89.6439C271.094 87.7798 274.608 85.4333 277.776 82.6632C279.639 81.0234 281.366 79.2356 282.941 77.3175L282.889 77.389C281.352 79.7307 280.67 82.5308 280.959 85.3166C281.416 89.4266 283.975 93.2697 284.971 97.1866C285.07 97.6108 285.287 97.998 285.598 98.3027C285.909 98.6073 286.301 98.8166 286.727 98.9059C287.154 98.9953 287.597 98.9609 288.004 98.8069C288.411 98.6528 288.766 98.3855 289.026 98.0365C289.045 98.0113 289.063 97.9861 289.081 97.9607C288.859 97.4522 288.669 96.9303 288.512 96.3981C288.422 96.0929 288.344 95.785 288.276 95.4743C288.193 95.0823 288.23 94.6744 288.383 94.3038C288.535 93.9333 288.796 93.6175 289.132 93.3979C289.467 93.1782 289.861 93.0649 290.262 93.0728C290.662 93.0806 291.051 93.2094 291.378 93.4421L291.411 93.4659C291.435 93.4833 291.456 93.4978 291.48 93.5151C292.314 91.401 292.779 89.1589 292.853 86.8872C292.915 84.1108 292.409 81.3509 291.366 78.7769C290.324 76.2028 288.766 73.8687 286.789 71.9178L286.786 71.9149C288.533 69.0428 289.977 65.9969 291.094 62.8264L282.753 54.7002C282.633 54.7637 282.513 54.8331 282.396 54.8996C283.215 55.6032 283.945 56.4045 284.57 57.2856C283.211 57.4417 281.846 57.6039 280.487 57.76C280.46 57.7608 280.432 57.7631 280.405 57.767C279.712 57.8496 279.019 57.9264 278.327 58.0091L278.326 58.0094C277.148 59.1839 276.127 60.5056 275.286 61.941Z" fill="#E6E6E6"/>
<path d="M74.4955 94.5305L63.9929 106.459L69.9571 112.203C69.9571 112.203 78.6075 98.0137 78.8951 97.4649C79.69 97.3516 80.4317 96.9997 81.0221 96.4557C81.6126 95.9118 82.0239 95.2015 82.2017 94.4188C82.3796 93.6361 82.3155 92.8179 82.018 92.0723C81.7206 91.3268 81.2037 90.6892 80.5358 90.2437C79.8679 89.7982 79.0804 89.5659 78.2776 89.5776C77.4748 89.5892 76.6944 89.8442 76.0397 90.3089C75.385 90.7735 74.8868 91.4259 74.6111 92.1797C74.3354 92.9336 74.2951 93.7533 74.4955 94.5305Z" fill="#A0616A"/>
<path d="M37.809 87.2935C38.0253 99.7441 47.4785 109.993 54.6423 121.232C55.6973 121.929 56.8861 122.397 58.1327 122.609C59.3792 122.82 60.6562 122.769 61.8819 122.458C63.1075 122.148 64.2549 121.586 65.2507 120.807C66.2466 120.028 67.0689 119.05 67.6651 117.935L73.9473 106.342L65.9522 104.104L61.711 106.886L52.8633 96.4998L37.809 87.2935Z" fill="#3F3D56"/>
</g>
<defs>
<clipPath id="clip0_361_2582">
<rect width="433" height="336" fill="white"/>
</clipPath>
</defs>
</svg>
